M48
;Layer_Color=9474304
;FILE_FORMAT=2:5
INCH,LZ
;TYPE=PLATED
T1F00S00C0.01181
T2F00S00C0.02756
T4F00S00C0.03000
T5F00S00C0.03346
T6F00S00C0.03543
T7F00S00C0.05512
;TYPE=NON_PLATED
T8F00S00C0.12598
%
T01
X0142618Y001437
X0153149Y0033897
X0193307Y0039429
X0206299Y0037599
X0211614Y003813
X0216339Y0024705
X0218111Y0064566
X0197638Y0061024
X018563Y0084646
X015561Y0089665
X0163386Y0117717
X0170437Y0117493
X0240354Y0116339
X0283071Y0022441
X0114567Y0039429
X009685Y0039764
X0082382Y0053323
X0075197Y0052559
X0070472Y0050394
X0056925Y0040059
X0030059Y0036909
X0029528Y0077952
X0008622Y0076929
X0080709Y0074804
X009252Y0005118
X0066929Y0158464
X0067323Y0176378
X0152067Y0182677
X0155709Y0185063
X0161417Y0184252
X0164961Y0186614
X01575Y0174213
X0158464Y0136221
X0133366Y0148383
X0211614Y0148721
X0227756Y0141339
X0236614Y0148032
X0247047Y0148721
X0244094Y0151969
X0241142Y0158465
X0241142Y016624
X0247047Y016624
X0258858Y016624
X0268701
X0280512
X0286417
X0284449Y0158465
X0280512Y0148721
X0268701
X0258858
X0262795Y0158465
X0236811Y0173622
X0227953Y0166929
X021063Y0173229
X0295276Y0178346
X0301181Y0162402
X0307086
T02
X0039011Y0028543
Y0034449
X0189961Y0151732
Y0159606
Y016748
X0199803
Y0159606
Y0151732
T04
X002887Y0160228
X004687
Y0186228
X002887
T05
X0061946Y0044439
X0098941Y0057904
T06
X02975Y00075
X02975Y00175
X0322244Y0042559
Y0052559
X0332244
Y0042559
Y0062559
Y0072559
X0322244
Y0082559
X0332244Y0082559
Y0092559
X0322244
Y0102559
Y0112559
Y0122559
X0332244
Y0112559
Y0102559
Y0132559
X0322244Y0132559
Y0062559
X0280236Y0051339
Y0041339
Y0031339
X0270236Y0031339
Y0041339
Y0051339
X0255236Y0061339
Y0071339
Y0081339
X0240236
Y0091339
Y0071338
Y0061339
Y0051339
Y0041339
X0241437Y0026949
X0251437
X0261437
X02575Y00175
X02475
X02375
X02375Y00075
X02475
X02575
X02675
X02775
X02875
Y00175
X02775
X02675
X02275
X02175
Y00075
X02275
X02075
X01975
Y00175
X01875
Y00075
X01775
X01675
Y00175
X01575
X01475
X01375
X01375Y00075
X01475
X01575
X01775Y00175
X017752Y003
X016752
X018752
X019752
X020752
X021752
X0231437Y0026949
X02075Y00175
X0142362Y003
X0142362Y0070965
X0143366Y0095669
X0133366
X0153366
X0163366
X0173366
X0183366
X0205709Y0129921
X0215709
X014376Y0129331
X013376
X0132362Y0070965
X0122362
X0112362
X0112362Y003
X0122362
X0132362
X01275Y00175
X01175
X01175Y00075
X01075
Y00175
X00975
X00875
X00775
Y00075
X00875
X00975
X01275
X0125276Y0186228
X0115276
X0105276
X0095276
X00975Y01975
X00875
X00775
Y02075
X00875
X00975
X01075
Y01975
X01175
X01175Y02075
X01275
Y01975
X0082382Y0184311
Y0174311
X0135276Y0186228
X0145276
X01475Y01975
X01575
X01675
Y02075
X01575
X01475
X01375
X01375Y01975
X01775
X01875
X01975
Y02075
X01875
X01775
X02075
X02175
Y01975
X02275
X02375
X02475
X02475Y02075
X02375
X02275
X02575
Y01975
X02675
X02775
X02875
Y01875
Y02075
X02775
X02675
X02075Y01975
X02975
Y01875
X02975Y02075
X0322244Y0172559
Y0162559
X0332244
Y0152559
Y0142559
X0322244
Y0152559
X0292244Y0152559
Y0142559
X0332244Y0172559
T07
X0138779Y0107087
X0148622
X0158464
X0168307
X0178149
X0198819
X0208661
X0218504
X011811
X0108268
X0098425
Y0155315
X0108268
X011811
T08
X03175Y0025
X00575Y00125
Y02025
X03175Y019
M30
