G04*
G04 #@! TF.GenerationSoftware,Altium Limited,Altium Designer,18.1.9 (240)*
G04*
G04 Layer_Color=2752767*
%FSLAX25Y25*%
%MOIN*%
G70*
G01*
G75*
%ADD11C,0.00984*%
%ADD12C,0.00787*%
%ADD13C,0.00591*%
%ADD14C,0.01000*%
%ADD15C,0.01575*%
%ADD68C,0.00600*%
%ADD69C,0.00200*%
%ADD70C,0.00267*%
G36*
X1032036Y-69688D02*
X1033754D01*
Y-69974D01*
X1034613D01*
Y-70260D01*
X1035472D01*
Y-70547D01*
X1036331D01*
Y-70833D01*
X1036904D01*
Y-71119D01*
X1037190D01*
Y-71406D01*
X1037763D01*
Y-71692D01*
X1038049D01*
Y-71978D01*
X1038622D01*
Y-72264D01*
X1038908D01*
Y-72551D01*
X1039194D01*
Y-72837D01*
X1039480D01*
Y-73123D01*
X1039767D01*
Y-73410D01*
X1040053D01*
Y-73696D01*
X1040339D01*
Y-73982D01*
Y-74269D01*
X1040626D01*
Y-74555D01*
X1040912D01*
Y-74841D01*
Y-75128D01*
X1041198D01*
Y-75414D01*
X1041485D01*
Y-75700D01*
Y-75987D01*
X1041771D01*
Y-76273D01*
Y-76559D01*
Y-76846D01*
X1042057D01*
Y-77132D01*
Y-77418D01*
Y-77704D01*
X1042344D01*
Y-77991D01*
Y-78277D01*
Y-78563D01*
Y-78850D01*
X1042630D01*
Y-79136D01*
Y-79422D01*
Y-79709D01*
Y-79995D01*
Y-80281D01*
X1042916D01*
Y-80568D01*
Y-80854D01*
Y-81140D01*
Y-81427D01*
Y-81713D01*
Y-81999D01*
Y-82285D01*
Y-82572D01*
Y-82858D01*
Y-83144D01*
Y-83431D01*
Y-83717D01*
Y-84003D01*
Y-84290D01*
Y-84576D01*
Y-84862D01*
Y-85149D01*
Y-85435D01*
Y-85721D01*
Y-86007D01*
X1042630D01*
Y-86294D01*
Y-86580D01*
Y-86866D01*
Y-87153D01*
Y-87439D01*
Y-87725D01*
Y-88012D01*
X1042344D01*
Y-88298D01*
Y-88584D01*
Y-88871D01*
Y-89157D01*
Y-89443D01*
X1042057D01*
Y-89730D01*
Y-90016D01*
Y-90302D01*
Y-90588D01*
Y-90875D01*
X1041771D01*
Y-91161D01*
Y-91448D01*
Y-91734D01*
X1041485D01*
Y-92020D01*
Y-92306D01*
Y-92593D01*
Y-92879D01*
X1041198D01*
Y-93165D01*
Y-93452D01*
Y-93738D01*
X1040912D01*
Y-94024D01*
Y-94311D01*
X1040626D01*
Y-94597D01*
Y-94883D01*
Y-95170D01*
X1040339D01*
Y-95456D01*
Y-95742D01*
X1040053D01*
Y-96029D01*
Y-96315D01*
X1039767D01*
Y-96601D01*
Y-96887D01*
X1039480D01*
Y-97174D01*
X1039194D01*
Y-97460D01*
Y-97746D01*
X1038908D01*
Y-98033D01*
X1038622D01*
Y-98319D01*
X1038335D01*
Y-98605D01*
Y-98892D01*
X1038049D01*
Y-99178D01*
X1037763D01*
Y-99464D01*
X1037476D01*
Y-99751D01*
X1037190D01*
Y-100037D01*
X1036904D01*
Y-100323D01*
X1036331D01*
Y-100610D01*
X1036045D01*
Y-100896D01*
X1035472D01*
Y-101182D01*
X1035186D01*
Y-101468D01*
X1034613D01*
Y-101755D01*
X1033754D01*
Y-102041D01*
X1032895D01*
Y-102327D01*
X1032036D01*
Y-102614D01*
X1030318D01*
Y-102900D01*
X1025165D01*
Y-102614D01*
X1022588D01*
Y-102327D01*
X1020584D01*
Y-102041D01*
X1019152D01*
Y-101755D01*
X1017721D01*
Y-101468D01*
X1016289D01*
Y-101755D01*
Y-102041D01*
Y-102327D01*
Y-102614D01*
Y-102900D01*
Y-103186D01*
Y-103473D01*
X1016003D01*
Y-103759D01*
Y-104045D01*
Y-104332D01*
Y-104618D01*
Y-104904D01*
Y-105191D01*
X1015716D01*
Y-105477D01*
Y-105763D01*
Y-106049D01*
Y-106336D01*
Y-106622D01*
Y-106908D01*
X1015430D01*
Y-107195D01*
Y-107481D01*
Y-107767D01*
Y-108054D01*
Y-108340D01*
Y-108626D01*
Y-108913D01*
X1015144D01*
Y-109199D01*
Y-109485D01*
Y-109772D01*
Y-110058D01*
Y-110344D01*
Y-110630D01*
X1014857D01*
Y-110917D01*
Y-111203D01*
Y-111489D01*
Y-111776D01*
Y-112062D01*
Y-112348D01*
X1014571D01*
Y-112635D01*
Y-112921D01*
Y-113207D01*
Y-113494D01*
Y-113780D01*
Y-114066D01*
Y-114353D01*
X1014285D01*
Y-114639D01*
Y-114925D01*
Y-115211D01*
Y-115498D01*
Y-115784D01*
Y-116070D01*
X1013999D01*
Y-116357D01*
Y-116643D01*
Y-116929D01*
Y-117216D01*
Y-117502D01*
Y-117788D01*
X1013712D01*
Y-118075D01*
Y-118361D01*
Y-118647D01*
Y-118933D01*
Y-119220D01*
Y-119506D01*
Y-119792D01*
X1000256D01*
Y-119506D01*
X1000542D01*
Y-119220D01*
Y-118933D01*
Y-118647D01*
Y-118361D01*
Y-118075D01*
X1000828D01*
Y-117788D01*
Y-117502D01*
Y-117216D01*
Y-116929D01*
Y-116643D01*
Y-116357D01*
Y-116070D01*
X1001114D01*
Y-115784D01*
Y-115498D01*
Y-115211D01*
Y-114925D01*
Y-114639D01*
Y-114353D01*
X1001401D01*
Y-114066D01*
Y-113780D01*
Y-113494D01*
Y-113207D01*
Y-112921D01*
Y-112635D01*
X1001687D01*
Y-112348D01*
Y-112062D01*
Y-111776D01*
Y-111489D01*
Y-111203D01*
Y-110917D01*
Y-110630D01*
X1001974D01*
Y-110344D01*
Y-110058D01*
Y-109772D01*
Y-109485D01*
Y-109199D01*
Y-108913D01*
X1002260D01*
Y-108626D01*
Y-108340D01*
Y-108054D01*
Y-107767D01*
Y-107481D01*
Y-107195D01*
X1002546D01*
Y-106908D01*
Y-106622D01*
Y-106336D01*
Y-106049D01*
Y-105763D01*
Y-105477D01*
X1002832D01*
Y-105191D01*
Y-104904D01*
Y-104618D01*
Y-104332D01*
Y-104045D01*
Y-103759D01*
Y-103473D01*
X1003119D01*
Y-103186D01*
Y-102900D01*
Y-102614D01*
Y-102327D01*
Y-102041D01*
Y-101755D01*
X1003405D01*
Y-101468D01*
Y-101182D01*
Y-100896D01*
Y-100610D01*
Y-100323D01*
Y-100037D01*
X1003691D01*
Y-99751D01*
Y-99464D01*
Y-99178D01*
Y-98892D01*
Y-98605D01*
Y-98319D01*
X1003978D01*
Y-98033D01*
Y-97746D01*
Y-97460D01*
Y-97174D01*
Y-96887D01*
Y-96601D01*
Y-96315D01*
X1004264D01*
Y-96029D01*
Y-95742D01*
Y-95456D01*
Y-95170D01*
Y-94883D01*
Y-94597D01*
X1004550D01*
Y-94311D01*
Y-94024D01*
Y-93738D01*
Y-93452D01*
Y-93165D01*
Y-92879D01*
X1004837D01*
Y-92593D01*
Y-92306D01*
Y-92020D01*
Y-91734D01*
Y-91448D01*
Y-91161D01*
Y-90875D01*
X1005123D01*
Y-90588D01*
Y-90302D01*
Y-90016D01*
Y-89730D01*
Y-89443D01*
Y-89157D01*
X1005409D01*
Y-88871D01*
Y-88584D01*
Y-88298D01*
Y-88012D01*
Y-87725D01*
Y-87439D01*
X1005696D01*
Y-87153D01*
Y-86866D01*
Y-86580D01*
Y-86294D01*
Y-86007D01*
Y-85721D01*
X1005982D01*
Y-85435D01*
Y-85149D01*
Y-84862D01*
Y-84576D01*
Y-84290D01*
Y-84003D01*
Y-83717D01*
X1006268D01*
Y-83431D01*
Y-83144D01*
Y-82858D01*
Y-82572D01*
Y-82285D01*
Y-81999D01*
X1006555D01*
Y-81713D01*
Y-81427D01*
Y-81140D01*
Y-80854D01*
Y-80568D01*
Y-80281D01*
X1006841D01*
Y-79995D01*
Y-79709D01*
Y-79422D01*
Y-79136D01*
Y-78850D01*
Y-78563D01*
Y-78277D01*
X1007127D01*
Y-77991D01*
Y-77704D01*
Y-77418D01*
Y-77132D01*
Y-76846D01*
Y-76559D01*
X1007413D01*
Y-76273D01*
Y-75987D01*
Y-75700D01*
Y-75414D01*
Y-75128D01*
Y-74841D01*
X1007700D01*
Y-74555D01*
Y-74269D01*
Y-73982D01*
Y-73696D01*
Y-73410D01*
Y-73123D01*
Y-72837D01*
X1007986D01*
Y-72551D01*
Y-72264D01*
Y-71978D01*
Y-71692D01*
Y-71406D01*
Y-71119D01*
X1008272D01*
Y-70833D01*
Y-70547D01*
Y-70260D01*
Y-69974D01*
Y-69688D01*
Y-69401D01*
X1032036D01*
Y-69688D01*
D02*
G37*
G36*
X1063244Y-66252D02*
Y-66538D01*
X1062958D01*
Y-66825D01*
Y-67111D01*
Y-67397D01*
Y-67684D01*
Y-67970D01*
Y-68256D01*
X1062672D01*
Y-68542D01*
Y-68829D01*
Y-69115D01*
Y-69401D01*
Y-69688D01*
Y-69974D01*
X1062385D01*
Y-70260D01*
Y-70547D01*
Y-70833D01*
Y-71119D01*
Y-71406D01*
Y-71692D01*
Y-71978D01*
X1062099D01*
Y-72264D01*
Y-72551D01*
Y-72837D01*
Y-73123D01*
Y-73410D01*
Y-73696D01*
X1061813D01*
Y-73982D01*
Y-74269D01*
Y-74555D01*
Y-74841D01*
Y-75128D01*
Y-75414D01*
X1061526D01*
Y-75700D01*
Y-75987D01*
Y-76273D01*
Y-76559D01*
Y-76846D01*
Y-77132D01*
Y-77418D01*
X1061240D01*
Y-77704D01*
Y-77991D01*
Y-78277D01*
Y-78563D01*
Y-78850D01*
Y-79136D01*
X1060954D01*
Y-79422D01*
Y-79709D01*
Y-79995D01*
Y-80281D01*
Y-80568D01*
Y-80854D01*
X1060668D01*
Y-81140D01*
Y-81427D01*
Y-81713D01*
Y-81999D01*
Y-82285D01*
Y-82572D01*
X1060381D01*
Y-82858D01*
Y-83144D01*
Y-83431D01*
Y-83717D01*
Y-84003D01*
Y-84290D01*
Y-84576D01*
X1060095D01*
Y-84862D01*
Y-85149D01*
Y-85435D01*
Y-85721D01*
Y-86007D01*
Y-86294D01*
X1059809D01*
Y-86580D01*
Y-86866D01*
X1060381D01*
Y-86580D01*
X1060668D01*
Y-86294D01*
X1060954D01*
Y-86007D01*
X1061526D01*
Y-85721D01*
X1061813D01*
Y-85435D01*
X1062099D01*
Y-85149D01*
X1062672D01*
Y-84862D01*
X1063244D01*
Y-84576D01*
X1063531D01*
Y-84290D01*
X1064103D01*
Y-84003D01*
X1064962D01*
Y-83717D01*
X1065535D01*
Y-83431D01*
X1066394D01*
Y-83144D01*
X1067825D01*
Y-82858D01*
X1074124D01*
Y-83144D01*
X1075270D01*
Y-83431D01*
X1076128D01*
Y-83717D01*
X1076701D01*
Y-84003D01*
X1076987D01*
Y-84290D01*
X1077560D01*
Y-84576D01*
X1077846D01*
Y-84862D01*
X1078133D01*
Y-85149D01*
X1078419D01*
Y-85435D01*
X1078705D01*
Y-85721D01*
Y-86007D01*
X1078992D01*
Y-86294D01*
Y-86580D01*
X1079278D01*
Y-86866D01*
Y-87153D01*
Y-87439D01*
X1079564D01*
Y-87725D01*
Y-88012D01*
Y-88298D01*
Y-88584D01*
X1079850D01*
Y-88871D01*
Y-89157D01*
Y-89443D01*
Y-89730D01*
Y-90016D01*
Y-90302D01*
Y-90588D01*
Y-90875D01*
Y-91161D01*
Y-91448D01*
Y-91734D01*
Y-92020D01*
Y-92306D01*
Y-92593D01*
Y-92879D01*
Y-93165D01*
Y-93452D01*
Y-93738D01*
X1079564D01*
Y-94024D01*
Y-94311D01*
Y-94597D01*
Y-94883D01*
Y-95170D01*
Y-95456D01*
Y-95742D01*
X1079278D01*
Y-96029D01*
Y-96315D01*
Y-96601D01*
Y-96887D01*
Y-97174D01*
Y-97460D01*
Y-97746D01*
X1078992D01*
Y-98033D01*
Y-98319D01*
Y-98605D01*
Y-98892D01*
Y-99178D01*
Y-99464D01*
X1078705D01*
Y-99751D01*
Y-100037D01*
Y-100323D01*
Y-100610D01*
Y-100896D01*
Y-101182D01*
X1078419D01*
Y-101468D01*
Y-101755D01*
Y-102041D01*
Y-102327D01*
Y-102614D01*
Y-102900D01*
X1078133D01*
Y-103186D01*
Y-103473D01*
Y-103759D01*
Y-104045D01*
Y-104332D01*
Y-104618D01*
Y-104904D01*
X1077846D01*
Y-105191D01*
Y-105477D01*
Y-105763D01*
Y-106049D01*
Y-106336D01*
Y-106622D01*
X1077560D01*
Y-106908D01*
Y-107195D01*
Y-107481D01*
Y-107767D01*
Y-108054D01*
Y-108340D01*
X1077274D01*
Y-108626D01*
Y-108913D01*
Y-109199D01*
Y-109485D01*
Y-109772D01*
Y-110058D01*
Y-110344D01*
X1076987D01*
Y-110630D01*
Y-110917D01*
Y-111203D01*
Y-111489D01*
Y-111776D01*
Y-112062D01*
X1076701D01*
Y-112348D01*
Y-112635D01*
Y-112921D01*
Y-113207D01*
Y-113494D01*
Y-113780D01*
X1076415D01*
Y-114066D01*
Y-114353D01*
Y-114639D01*
Y-114925D01*
Y-115211D01*
Y-115498D01*
X1076128D01*
Y-115784D01*
Y-116070D01*
Y-116357D01*
Y-116643D01*
Y-116929D01*
Y-117216D01*
Y-117502D01*
X1075842D01*
Y-117788D01*
Y-118075D01*
Y-118361D01*
Y-118647D01*
Y-118933D01*
Y-119220D01*
X1075556D01*
Y-119506D01*
Y-119792D01*
X1062385D01*
Y-119506D01*
Y-119220D01*
X1062672D01*
Y-118933D01*
Y-118647D01*
Y-118361D01*
Y-118075D01*
Y-117788D01*
Y-117502D01*
X1062958D01*
Y-117216D01*
Y-116929D01*
Y-116643D01*
Y-116357D01*
Y-116070D01*
Y-115784D01*
Y-115498D01*
X1063244D01*
Y-115211D01*
Y-114925D01*
Y-114639D01*
Y-114353D01*
Y-114066D01*
Y-113780D01*
X1063531D01*
Y-113494D01*
Y-113207D01*
Y-112921D01*
Y-112635D01*
Y-112348D01*
Y-112062D01*
X1063817D01*
Y-111776D01*
Y-111489D01*
Y-111203D01*
Y-110917D01*
Y-110630D01*
Y-110344D01*
Y-110058D01*
X1064103D01*
Y-109772D01*
Y-109485D01*
Y-109199D01*
Y-108913D01*
Y-108626D01*
Y-108340D01*
X1064390D01*
Y-108054D01*
Y-107767D01*
Y-107481D01*
Y-107195D01*
Y-106908D01*
Y-106622D01*
Y-106336D01*
X1064676D01*
Y-106049D01*
Y-105763D01*
Y-105477D01*
Y-105191D01*
Y-104904D01*
Y-104618D01*
X1064962D01*
Y-104332D01*
Y-104045D01*
Y-103759D01*
Y-103473D01*
Y-103186D01*
Y-102900D01*
X1065249D01*
Y-102614D01*
Y-102327D01*
Y-102041D01*
Y-101755D01*
Y-101468D01*
Y-101182D01*
X1065535D01*
Y-100896D01*
Y-100610D01*
Y-100323D01*
Y-100037D01*
Y-99751D01*
Y-99464D01*
Y-99178D01*
X1065821D01*
Y-98892D01*
Y-98605D01*
Y-98319D01*
Y-98033D01*
Y-97746D01*
Y-97460D01*
X1066107D01*
Y-97174D01*
Y-96887D01*
Y-96601D01*
Y-96315D01*
Y-96029D01*
Y-95742D01*
Y-95456D01*
X1066394D01*
Y-95170D01*
Y-94883D01*
Y-94597D01*
Y-94311D01*
Y-94024D01*
Y-93738D01*
X1066107D01*
Y-93452D01*
Y-93165D01*
X1065821D01*
Y-92879D01*
X1065535D01*
Y-92593D01*
X1064962D01*
Y-92306D01*
X1063244D01*
Y-92593D01*
X1061813D01*
Y-92879D01*
X1060954D01*
Y-93165D01*
X1060381D01*
Y-93452D01*
X1060095D01*
Y-93738D01*
X1059522D01*
Y-94024D01*
X1059236D01*
Y-94311D01*
X1058950D01*
Y-94597D01*
Y-94883D01*
X1058663D01*
Y-95170D01*
Y-95456D01*
Y-95742D01*
X1058377D01*
Y-96029D01*
Y-96315D01*
Y-96601D01*
Y-96887D01*
Y-97174D01*
Y-97460D01*
X1058091D01*
Y-97746D01*
Y-98033D01*
Y-98319D01*
Y-98605D01*
Y-98892D01*
Y-99178D01*
Y-99464D01*
X1057804D01*
Y-99751D01*
Y-100037D01*
Y-100323D01*
Y-100610D01*
Y-100896D01*
Y-101182D01*
X1057518D01*
Y-101468D01*
Y-101755D01*
Y-102041D01*
Y-102327D01*
Y-102614D01*
Y-102900D01*
X1057232D01*
Y-103186D01*
Y-103473D01*
Y-103759D01*
Y-104045D01*
Y-104332D01*
Y-104618D01*
X1056946D01*
Y-104904D01*
Y-105191D01*
Y-105477D01*
Y-105763D01*
Y-106049D01*
Y-106336D01*
Y-106622D01*
X1056659D01*
Y-106908D01*
Y-107195D01*
Y-107481D01*
Y-107767D01*
Y-108054D01*
Y-108340D01*
X1056373D01*
Y-108626D01*
Y-108913D01*
Y-109199D01*
Y-109485D01*
Y-109772D01*
Y-110058D01*
X1056087D01*
Y-110344D01*
Y-110630D01*
Y-110917D01*
Y-111203D01*
Y-111489D01*
Y-111776D01*
Y-112062D01*
X1055800D01*
Y-112348D01*
Y-112635D01*
Y-112921D01*
Y-113207D01*
Y-113494D01*
Y-113780D01*
X1055514D01*
Y-114066D01*
Y-114353D01*
Y-114639D01*
Y-114925D01*
Y-115211D01*
Y-115498D01*
X1055228D01*
Y-115784D01*
Y-116070D01*
Y-116357D01*
Y-116643D01*
Y-116929D01*
Y-117216D01*
X1054941D01*
Y-117502D01*
Y-117788D01*
Y-118075D01*
Y-118361D01*
Y-118647D01*
Y-118933D01*
Y-119220D01*
X1054655D01*
Y-119506D01*
Y-119792D01*
X1041485D01*
Y-119506D01*
Y-119220D01*
X1041771D01*
Y-118933D01*
Y-118647D01*
Y-118361D01*
Y-118075D01*
Y-117788D01*
Y-117502D01*
Y-117216D01*
X1042057D01*
Y-116929D01*
Y-116643D01*
Y-116357D01*
Y-116070D01*
Y-115784D01*
Y-115498D01*
X1042344D01*
Y-115211D01*
Y-114925D01*
Y-114639D01*
Y-114353D01*
Y-114066D01*
Y-113780D01*
X1042630D01*
Y-113494D01*
Y-113207D01*
Y-112921D01*
Y-112635D01*
Y-112348D01*
Y-112062D01*
Y-111776D01*
X1042916D01*
Y-111489D01*
Y-111203D01*
Y-110917D01*
Y-110630D01*
Y-110344D01*
Y-110058D01*
X1043202D01*
Y-109772D01*
Y-109485D01*
Y-109199D01*
Y-108913D01*
Y-108626D01*
Y-108340D01*
X1043489D01*
Y-108054D01*
Y-107767D01*
Y-107481D01*
Y-107195D01*
Y-106908D01*
Y-106622D01*
X1043775D01*
Y-106336D01*
Y-106049D01*
Y-105763D01*
Y-105477D01*
Y-105191D01*
Y-104904D01*
Y-104618D01*
X1044061D01*
Y-104332D01*
Y-104045D01*
Y-103759D01*
Y-103473D01*
Y-103186D01*
Y-102900D01*
X1044348D01*
Y-102614D01*
Y-102327D01*
Y-102041D01*
Y-101755D01*
Y-101468D01*
Y-101182D01*
X1044634D01*
Y-100896D01*
Y-100610D01*
Y-100323D01*
Y-100037D01*
Y-99751D01*
Y-99464D01*
Y-99178D01*
X1044920D01*
Y-98892D01*
Y-98605D01*
Y-98319D01*
Y-98033D01*
Y-97746D01*
Y-97460D01*
X1045207D01*
Y-97174D01*
Y-96887D01*
Y-96601D01*
Y-96315D01*
Y-96029D01*
Y-95742D01*
X1045493D01*
Y-95456D01*
Y-95170D01*
Y-94883D01*
Y-94597D01*
Y-94311D01*
Y-94024D01*
X1045779D01*
Y-93738D01*
Y-93452D01*
Y-93165D01*
Y-92879D01*
Y-92593D01*
Y-92306D01*
Y-92020D01*
X1046066D01*
Y-91734D01*
Y-91448D01*
Y-91161D01*
Y-90875D01*
Y-90588D01*
Y-90302D01*
X1046352D01*
Y-90016D01*
Y-89730D01*
Y-89443D01*
Y-89157D01*
Y-88871D01*
Y-88584D01*
X1046638D01*
Y-88298D01*
Y-88012D01*
Y-87725D01*
Y-87439D01*
Y-87153D01*
Y-86866D01*
X1046925D01*
Y-86580D01*
Y-86294D01*
Y-86007D01*
Y-85721D01*
Y-85435D01*
Y-85149D01*
Y-84862D01*
X1047211D01*
Y-84576D01*
Y-84290D01*
Y-84003D01*
Y-83717D01*
Y-83431D01*
Y-83144D01*
X1047497D01*
Y-82858D01*
Y-82572D01*
Y-82285D01*
Y-81999D01*
Y-81713D01*
Y-81427D01*
X1047783D01*
Y-81140D01*
Y-80854D01*
Y-80568D01*
Y-80281D01*
Y-79995D01*
Y-79709D01*
Y-79422D01*
X1048070D01*
Y-79136D01*
Y-78850D01*
Y-78563D01*
Y-78277D01*
Y-77991D01*
Y-77704D01*
X1048356D01*
Y-77418D01*
Y-77132D01*
Y-76846D01*
Y-76559D01*
Y-76273D01*
Y-75987D01*
X1048642D01*
Y-75700D01*
Y-75414D01*
Y-75128D01*
Y-74841D01*
Y-74555D01*
Y-74269D01*
X1048929D01*
Y-73982D01*
Y-73696D01*
Y-73410D01*
Y-73123D01*
Y-72837D01*
Y-72551D01*
Y-72264D01*
X1049215D01*
Y-71978D01*
Y-71692D01*
Y-71406D01*
Y-71119D01*
Y-70833D01*
Y-70547D01*
X1049501D01*
Y-70260D01*
Y-69974D01*
Y-69688D01*
Y-69401D01*
Y-69115D01*
Y-68829D01*
X1049788D01*
Y-68542D01*
Y-68256D01*
Y-67970D01*
Y-67684D01*
Y-67397D01*
Y-67111D01*
Y-66825D01*
X1050074D01*
Y-66538D01*
Y-66252D01*
Y-65966D01*
X1063244D01*
Y-66252D01*
D02*
G37*
G36*
X1165172Y-83717D02*
X1164886D01*
Y-84003D01*
X1164599D01*
Y-84290D01*
Y-84576D01*
X1164313D01*
Y-84862D01*
X1164027D01*
Y-85149D01*
X1163740D01*
Y-85435D01*
Y-85721D01*
X1163454D01*
Y-86007D01*
X1163168D01*
Y-86294D01*
X1162881D01*
Y-86580D01*
X1162595D01*
Y-86866D01*
Y-87153D01*
X1162309D01*
Y-87439D01*
X1162022D01*
Y-87725D01*
X1161736D01*
Y-88012D01*
Y-88298D01*
X1161450D01*
Y-88584D01*
X1161163D01*
Y-88871D01*
X1160877D01*
Y-89157D01*
X1160591D01*
Y-89443D01*
Y-89730D01*
X1160305D01*
Y-90016D01*
X1160018D01*
Y-90302D01*
X1159732D01*
Y-90588D01*
Y-90875D01*
X1159445D01*
Y-91161D01*
X1159159D01*
Y-91448D01*
X1158873D01*
Y-91734D01*
Y-92020D01*
X1158587D01*
Y-92306D01*
X1158300D01*
Y-92593D01*
X1158014D01*
Y-92879D01*
X1157728D01*
Y-93165D01*
Y-93452D01*
X1157441D01*
Y-93738D01*
X1157155D01*
Y-94024D01*
X1156869D01*
Y-94311D01*
Y-94597D01*
X1156582D01*
Y-94883D01*
X1156296D01*
Y-95170D01*
X1156010D01*
Y-95456D01*
Y-95742D01*
X1155723D01*
Y-96029D01*
X1155437D01*
Y-96315D01*
X1155151D01*
Y-96601D01*
X1154865D01*
Y-96887D01*
Y-97174D01*
X1154578D01*
Y-97460D01*
X1154292D01*
Y-97746D01*
X1154006D01*
Y-98033D01*
Y-98319D01*
X1153719D01*
Y-98605D01*
X1153433D01*
Y-98892D01*
X1153147D01*
Y-99178D01*
Y-99464D01*
X1152860D01*
Y-99751D01*
X1152574D01*
Y-100037D01*
X1152288D01*
Y-100323D01*
X1152001D01*
Y-100610D01*
Y-100896D01*
X1151715D01*
Y-101182D01*
X1151429D01*
Y-101468D01*
X1151142D01*
Y-101755D01*
Y-102041D01*
X1150856D01*
Y-102327D01*
X1150570D01*
Y-102614D01*
X1150284D01*
Y-102900D01*
X1149997D01*
Y-103186D01*
Y-103473D01*
X1150284D01*
Y-103759D01*
Y-104045D01*
X1150570D01*
Y-104332D01*
Y-104618D01*
X1150856D01*
Y-104904D01*
X1151142D01*
Y-105191D01*
Y-105477D01*
X1151429D01*
Y-105763D01*
Y-106049D01*
X1151715D01*
Y-106336D01*
Y-106622D01*
X1152001D01*
Y-106908D01*
Y-107195D01*
X1152288D01*
Y-107481D01*
Y-107767D01*
X1152574D01*
Y-108054D01*
Y-108340D01*
X1152860D01*
Y-108626D01*
Y-108913D01*
X1153147D01*
Y-109199D01*
Y-109485D01*
X1153433D01*
Y-109772D01*
X1153719D01*
Y-110058D01*
Y-110344D01*
X1154006D01*
Y-110630D01*
Y-110917D01*
X1154292D01*
Y-111203D01*
Y-111489D01*
X1154578D01*
Y-111776D01*
Y-112062D01*
X1154865D01*
Y-112348D01*
Y-112635D01*
X1155151D01*
Y-112921D01*
Y-113207D01*
X1155437D01*
Y-113494D01*
Y-113780D01*
X1155723D01*
Y-114066D01*
X1156010D01*
Y-114353D01*
Y-114639D01*
X1156296D01*
Y-114925D01*
Y-115211D01*
X1156582D01*
Y-115498D01*
Y-115784D01*
X1156869D01*
Y-116070D01*
Y-116357D01*
X1157155D01*
Y-116643D01*
Y-116929D01*
X1157441D01*
Y-117216D01*
Y-117502D01*
X1157728D01*
Y-117788D01*
Y-118075D01*
X1158014D01*
Y-118361D01*
X1158300D01*
Y-118647D01*
Y-118933D01*
X1158587D01*
Y-119220D01*
Y-119506D01*
X1158873D01*
Y-119792D01*
X1143698D01*
Y-119506D01*
X1143412D01*
Y-119220D01*
Y-118933D01*
Y-118647D01*
X1143126D01*
Y-118361D01*
Y-118075D01*
Y-117788D01*
X1142839D01*
Y-117502D01*
Y-117216D01*
X1142553D01*
Y-116929D01*
Y-116643D01*
Y-116357D01*
X1142267D01*
Y-116070D01*
Y-115784D01*
Y-115498D01*
X1141980D01*
Y-115211D01*
Y-114925D01*
X1141694D01*
Y-114639D01*
Y-114353D01*
Y-114066D01*
X1141408D01*
Y-113780D01*
Y-113494D01*
Y-113207D01*
X1141121D01*
Y-112921D01*
Y-112635D01*
Y-112348D01*
X1140835D01*
Y-112062D01*
X1140263D01*
Y-112348D01*
Y-112635D01*
X1139976D01*
Y-112921D01*
X1139690D01*
Y-113207D01*
Y-113494D01*
X1139404D01*
Y-113780D01*
X1139117D01*
Y-114066D01*
Y-114353D01*
X1138831D01*
Y-114639D01*
X1138545D01*
Y-114925D01*
Y-115211D01*
X1138258D01*
Y-115498D01*
X1137972D01*
Y-115784D01*
X1137686D01*
Y-116070D01*
Y-116357D01*
X1137399D01*
Y-116643D01*
X1137113D01*
Y-116929D01*
Y-117216D01*
X1136827D01*
Y-117502D01*
X1136541D01*
Y-117788D01*
Y-118075D01*
X1136254D01*
Y-118361D01*
X1135968D01*
Y-118647D01*
Y-118933D01*
X1135682D01*
Y-119220D01*
X1135395D01*
Y-119506D01*
Y-119792D01*
X1119362D01*
Y-119506D01*
X1119648D01*
Y-119220D01*
X1119934D01*
Y-118933D01*
X1120221D01*
Y-118647D01*
X1120507D01*
Y-118361D01*
Y-118075D01*
X1120793D01*
Y-117788D01*
X1121080D01*
Y-117502D01*
X1121366D01*
Y-117216D01*
X1121652D01*
Y-116929D01*
Y-116643D01*
X1121939D01*
Y-116357D01*
X1122225D01*
Y-116070D01*
X1122511D01*
Y-115784D01*
Y-115498D01*
X1122797D01*
Y-115211D01*
X1123084D01*
Y-114925D01*
X1123370D01*
Y-114639D01*
X1123656D01*
Y-114353D01*
Y-114066D01*
X1123943D01*
Y-113780D01*
X1124229D01*
Y-113494D01*
X1124515D01*
Y-113207D01*
X1124802D01*
Y-112921D01*
Y-112635D01*
X1125088D01*
Y-112348D01*
X1125374D01*
Y-112062D01*
X1125661D01*
Y-111776D01*
Y-111489D01*
X1125947D01*
Y-111203D01*
X1126233D01*
Y-110917D01*
X1126519D01*
Y-110630D01*
X1126806D01*
Y-110344D01*
Y-110058D01*
X1127092D01*
Y-109772D01*
X1127378D01*
Y-109485D01*
X1127665D01*
Y-109199D01*
Y-108913D01*
X1127951D01*
Y-108626D01*
X1128237D01*
Y-108340D01*
X1128524D01*
Y-108054D01*
X1128810D01*
Y-107767D01*
Y-107481D01*
X1129096D01*
Y-107195D01*
X1129383D01*
Y-106908D01*
X1129669D01*
Y-106622D01*
Y-106336D01*
X1129955D01*
Y-106049D01*
X1130242D01*
Y-105763D01*
X1130528D01*
Y-105477D01*
X1130814D01*
Y-105191D01*
Y-104904D01*
X1131100D01*
Y-104618D01*
X1131387D01*
Y-104332D01*
X1131673D01*
Y-104045D01*
X1131960D01*
Y-103759D01*
Y-103473D01*
X1132246D01*
Y-103186D01*
X1132532D01*
Y-102900D01*
X1132818D01*
Y-102614D01*
Y-102327D01*
X1133105D01*
Y-102041D01*
X1133391D01*
Y-101755D01*
X1133677D01*
Y-101468D01*
X1133964D01*
Y-101182D01*
Y-100896D01*
X1134250D01*
Y-100610D01*
Y-100323D01*
Y-100037D01*
X1133964D01*
Y-99751D01*
X1133677D01*
Y-99464D01*
Y-99178D01*
X1133391D01*
Y-98892D01*
Y-98605D01*
X1133105D01*
Y-98319D01*
Y-98033D01*
X1132818D01*
Y-97746D01*
Y-97460D01*
X1132532D01*
Y-97174D01*
Y-96887D01*
X1132246D01*
Y-96601D01*
Y-96315D01*
X1131960D01*
Y-96029D01*
X1131673D01*
Y-95742D01*
Y-95456D01*
X1131387D01*
Y-95170D01*
Y-94883D01*
X1131100D01*
Y-94597D01*
Y-94311D01*
X1130814D01*
Y-94024D01*
Y-93738D01*
X1130528D01*
Y-93452D01*
Y-93165D01*
X1130242D01*
Y-92879D01*
Y-92593D01*
X1129955D01*
Y-92306D01*
X1129669D01*
Y-92020D01*
Y-91734D01*
X1129383D01*
Y-91448D01*
Y-91161D01*
X1129096D01*
Y-90875D01*
Y-90588D01*
X1128810D01*
Y-90302D01*
Y-90016D01*
X1128524D01*
Y-89730D01*
Y-89443D01*
X1128237D01*
Y-89157D01*
Y-88871D01*
X1127951D01*
Y-88584D01*
Y-88298D01*
X1127665D01*
Y-88012D01*
X1127378D01*
Y-87725D01*
Y-87439D01*
X1127092D01*
Y-87153D01*
Y-86866D01*
X1126806D01*
Y-86580D01*
Y-86294D01*
X1126519D01*
Y-86007D01*
Y-85721D01*
X1126233D01*
Y-85435D01*
Y-85149D01*
X1125947D01*
Y-84862D01*
Y-84576D01*
X1125661D01*
Y-84290D01*
X1125374D01*
Y-84003D01*
Y-83717D01*
X1125088D01*
Y-83431D01*
X1140835D01*
Y-83717D01*
X1141121D01*
Y-84003D01*
Y-84290D01*
Y-84576D01*
X1141408D01*
Y-84862D01*
Y-85149D01*
Y-85435D01*
X1141694D01*
Y-85721D01*
Y-86007D01*
Y-86294D01*
X1141980D01*
Y-86580D01*
Y-86866D01*
Y-87153D01*
X1142267D01*
Y-87439D01*
Y-87725D01*
Y-88012D01*
X1142553D01*
Y-88298D01*
Y-88584D01*
Y-88871D01*
X1142839D01*
Y-89157D01*
Y-89443D01*
Y-89730D01*
X1143126D01*
Y-90016D01*
Y-90302D01*
Y-90588D01*
X1143412D01*
Y-90875D01*
Y-91161D01*
Y-91448D01*
Y-91734D01*
X1143985D01*
Y-91448D01*
X1144271D01*
Y-91161D01*
X1144557D01*
Y-90875D01*
Y-90588D01*
X1144844D01*
Y-90302D01*
X1145130D01*
Y-90016D01*
Y-89730D01*
X1145416D01*
Y-89443D01*
X1145702D01*
Y-89157D01*
Y-88871D01*
X1145989D01*
Y-88584D01*
X1146275D01*
Y-88298D01*
Y-88012D01*
X1146561D01*
Y-87725D01*
X1146848D01*
Y-87439D01*
Y-87153D01*
X1147134D01*
Y-86866D01*
X1147420D01*
Y-86580D01*
Y-86294D01*
X1147707D01*
Y-86007D01*
X1147993D01*
Y-85721D01*
Y-85435D01*
X1148279D01*
Y-85149D01*
X1148566D01*
Y-84862D01*
Y-84576D01*
X1148852D01*
Y-84290D01*
X1149138D01*
Y-84003D01*
Y-83717D01*
X1149425D01*
Y-83431D01*
X1165172D01*
Y-83717D01*
D02*
G37*
G36*
X1121080D02*
Y-84003D01*
Y-84290D01*
Y-84576D01*
Y-84862D01*
Y-85149D01*
Y-85435D01*
Y-85721D01*
Y-86007D01*
Y-86294D01*
Y-86580D01*
Y-86866D01*
Y-87153D01*
Y-87439D01*
Y-87725D01*
Y-88012D01*
Y-88298D01*
Y-88584D01*
Y-88871D01*
Y-89157D01*
Y-89443D01*
X1120793D01*
Y-89730D01*
Y-90016D01*
Y-90302D01*
Y-90588D01*
Y-90875D01*
X1120507D01*
Y-91161D01*
Y-91448D01*
Y-91734D01*
Y-92020D01*
X1120221D01*
Y-92306D01*
Y-92593D01*
Y-92879D01*
Y-93165D01*
X1119934D01*
Y-93452D01*
Y-93738D01*
Y-94024D01*
X1119648D01*
Y-94311D01*
Y-94597D01*
Y-94883D01*
X1119362D01*
Y-95170D01*
Y-95456D01*
Y-95742D01*
X1119075D01*
Y-96029D01*
Y-96315D01*
Y-96601D01*
X1118789D01*
Y-96887D01*
Y-97174D01*
X1118503D01*
Y-97460D01*
Y-97746D01*
X1118217D01*
Y-98033D01*
Y-98319D01*
Y-98605D01*
X1117930D01*
Y-98892D01*
Y-99178D01*
X1117644D01*
Y-99464D01*
Y-99751D01*
Y-100037D01*
X1117358D01*
Y-100323D01*
Y-100610D01*
X1117071D01*
Y-100896D01*
Y-101182D01*
Y-101468D01*
X1116785D01*
Y-101755D01*
Y-102041D01*
X1116499D01*
Y-102327D01*
Y-102614D01*
Y-102900D01*
X1116212D01*
Y-103186D01*
Y-103473D01*
X1115926D01*
Y-103759D01*
Y-104045D01*
Y-104332D01*
X1115640D01*
Y-104618D01*
Y-104904D01*
X1115353D01*
Y-105191D01*
Y-105477D01*
Y-105763D01*
X1115067D01*
Y-106049D01*
Y-106336D01*
X1114781D01*
Y-106622D01*
Y-106908D01*
Y-107195D01*
X1114494D01*
Y-107481D01*
Y-107767D01*
X1114208D01*
Y-108054D01*
Y-108340D01*
Y-108626D01*
X1113922D01*
Y-108913D01*
Y-109199D01*
X1113636D01*
Y-109485D01*
Y-109772D01*
Y-110058D01*
X1113349D01*
Y-110344D01*
Y-110630D01*
X1113063D01*
Y-110917D01*
Y-111203D01*
Y-111489D01*
X1112776D01*
Y-111776D01*
Y-112062D01*
X1112490D01*
Y-112348D01*
Y-112635D01*
Y-112921D01*
X1112204D01*
Y-113207D01*
Y-113494D01*
X1111918D01*
Y-113780D01*
Y-114066D01*
Y-114353D01*
X1111631D01*
Y-114639D01*
Y-114925D01*
X1111345D01*
Y-115211D01*
Y-115498D01*
Y-115784D01*
X1111059D01*
Y-116070D01*
Y-116357D01*
X1110772D01*
Y-116643D01*
Y-116929D01*
Y-117216D01*
X1110486D01*
Y-117502D01*
Y-117788D01*
X1110200D01*
Y-118075D01*
Y-118361D01*
Y-118647D01*
X1109913D01*
Y-118933D01*
Y-119220D01*
X1109627D01*
Y-119506D01*
Y-119792D01*
Y-120079D01*
X1109341D01*
Y-120365D01*
Y-120651D01*
X1109054D01*
Y-120938D01*
Y-121224D01*
X1108768D01*
Y-121510D01*
Y-121797D01*
X1108482D01*
Y-122083D01*
Y-122369D01*
Y-122656D01*
X1108195D01*
Y-122942D01*
X1107909D01*
Y-123228D01*
Y-123514D01*
Y-123801D01*
X1107623D01*
Y-124087D01*
X1107337D01*
Y-124373D01*
Y-124660D01*
X1107050D01*
Y-124946D01*
Y-125232D01*
X1106764D01*
Y-125519D01*
Y-125805D01*
X1106478D01*
Y-126091D01*
Y-126378D01*
X1106191D01*
Y-126664D01*
X1105905D01*
Y-126950D01*
Y-127237D01*
X1105619D01*
Y-127523D01*
Y-127809D01*
X1105332D01*
Y-128095D01*
X1105046D01*
Y-128382D01*
X1104760D01*
Y-128668D01*
Y-128954D01*
X1104473D01*
Y-129241D01*
X1104187D01*
Y-129527D01*
Y-129813D01*
X1103901D01*
Y-130100D01*
X1103615D01*
Y-130386D01*
X1103328D01*
Y-130672D01*
Y-130959D01*
X1103042D01*
Y-131245D01*
X1102756D01*
Y-131531D01*
X1102469D01*
Y-131818D01*
X1102183D01*
Y-132104D01*
X1101897D01*
Y-132390D01*
Y-132676D01*
X1101610D01*
Y-132963D01*
X1101324D01*
Y-133249D01*
X1101038D01*
Y-133535D01*
X1100751D01*
Y-133822D01*
X1100465D01*
Y-134108D01*
X1100179D01*
Y-134394D01*
X1099892D01*
Y-134681D01*
X1099320D01*
Y-134967D01*
X1099034D01*
Y-135253D01*
X1098747D01*
Y-135540D01*
X1098461D01*
Y-135826D01*
X1098175D01*
Y-136112D01*
X1097602D01*
Y-136399D01*
X1097316D01*
Y-136685D01*
X1096743D01*
Y-136971D01*
X1096457D01*
Y-137258D01*
X1095884D01*
Y-137544D01*
X1095598D01*
Y-137830D01*
X1095025D01*
Y-138117D01*
X1094452D01*
Y-138403D01*
X1093880D01*
Y-138689D01*
X1093307D01*
Y-138975D01*
X1092735D01*
Y-139262D01*
X1091876D01*
Y-139548D01*
X1091303D01*
Y-139834D01*
X1090444D01*
Y-140121D01*
X1089299D01*
Y-140407D01*
X1088154D01*
Y-140693D01*
X1086436D01*
Y-140980D01*
X1084432D01*
Y-141266D01*
X1084145D01*
Y-140980D01*
Y-140693D01*
Y-140407D01*
Y-140121D01*
Y-139834D01*
Y-139548D01*
Y-139262D01*
Y-138975D01*
Y-138689D01*
Y-138403D01*
Y-138117D01*
Y-137830D01*
Y-137544D01*
Y-137258D01*
Y-136971D01*
Y-136685D01*
Y-136399D01*
Y-136112D01*
Y-135826D01*
Y-135540D01*
Y-135253D01*
Y-134967D01*
Y-134681D01*
Y-134394D01*
Y-134108D01*
Y-133822D01*
Y-133535D01*
Y-133249D01*
Y-132963D01*
Y-132676D01*
Y-132390D01*
Y-132104D01*
Y-131818D01*
X1084718D01*
Y-131531D01*
X1085291D01*
Y-131245D01*
X1085863D01*
Y-130959D01*
X1086436D01*
Y-130672D01*
X1087008D01*
Y-130386D01*
X1087581D01*
Y-130100D01*
X1087867D01*
Y-129813D01*
X1088440D01*
Y-129527D01*
X1088726D01*
Y-129241D01*
X1089299D01*
Y-128954D01*
X1089585D01*
Y-128668D01*
X1089872D01*
Y-128382D01*
X1090444D01*
Y-128095D01*
X1090730D01*
Y-127809D01*
X1091017D01*
Y-127523D01*
X1091303D01*
Y-127237D01*
X1091589D01*
Y-126950D01*
X1091876D01*
Y-126664D01*
X1092162D01*
Y-126378D01*
X1092448D01*
Y-126091D01*
X1092735D01*
Y-125805D01*
X1093021D01*
Y-125519D01*
X1093307D01*
Y-125232D01*
X1093594D01*
Y-124946D01*
Y-124660D01*
X1093880D01*
Y-124373D01*
X1094166D01*
Y-124087D01*
X1094452D01*
Y-123801D01*
Y-123514D01*
X1094739D01*
Y-123228D01*
X1095025D01*
Y-122942D01*
Y-122656D01*
X1095311D01*
Y-122369D01*
Y-122083D01*
X1095598D01*
Y-121797D01*
X1095884D01*
Y-121510D01*
Y-121224D01*
X1096170D01*
Y-120938D01*
Y-120651D01*
X1096457D01*
Y-120365D01*
Y-120079D01*
X1094739D01*
Y-119792D01*
X1092735D01*
Y-119506D01*
X1091589D01*
Y-119220D01*
X1091017D01*
Y-118933D01*
X1090158D01*
Y-118647D01*
X1089585D01*
Y-118361D01*
X1089299D01*
Y-118075D01*
X1088726D01*
Y-117788D01*
X1088440D01*
Y-117502D01*
X1088154D01*
Y-117216D01*
X1087867D01*
Y-116929D01*
X1087581D01*
Y-116643D01*
X1087295D01*
Y-116357D01*
Y-116070D01*
X1087008D01*
Y-115784D01*
X1086722D01*
Y-115498D01*
Y-115211D01*
X1086436D01*
Y-114925D01*
Y-114639D01*
X1086149D01*
Y-114353D01*
Y-114066D01*
X1085863D01*
Y-113780D01*
Y-113494D01*
Y-113207D01*
X1085577D01*
Y-112921D01*
Y-112635D01*
Y-112348D01*
Y-112062D01*
X1085291D01*
Y-111776D01*
Y-111489D01*
Y-111203D01*
Y-110917D01*
Y-110630D01*
Y-110344D01*
Y-110058D01*
X1085004D01*
Y-109772D01*
Y-109485D01*
Y-109199D01*
Y-108913D01*
Y-108626D01*
Y-108340D01*
Y-108054D01*
Y-107767D01*
Y-107481D01*
Y-107195D01*
Y-106908D01*
Y-106622D01*
Y-106336D01*
Y-106049D01*
Y-105763D01*
X1084718D01*
Y-105477D01*
Y-105191D01*
Y-104904D01*
Y-104618D01*
Y-104332D01*
Y-104045D01*
Y-103759D01*
Y-103473D01*
Y-103186D01*
Y-102900D01*
Y-102614D01*
Y-102327D01*
Y-102041D01*
Y-101755D01*
Y-101468D01*
X1084432D01*
Y-101182D01*
Y-100896D01*
Y-100610D01*
Y-100323D01*
Y-100037D01*
Y-99751D01*
Y-99464D01*
Y-99178D01*
Y-98892D01*
Y-98605D01*
Y-98319D01*
Y-98033D01*
Y-97746D01*
Y-97460D01*
Y-97174D01*
Y-96887D01*
X1084145D01*
Y-96601D01*
Y-96315D01*
Y-96029D01*
Y-95742D01*
Y-95456D01*
Y-95170D01*
Y-94883D01*
Y-94597D01*
Y-94311D01*
Y-94024D01*
Y-93738D01*
Y-93452D01*
Y-93165D01*
Y-92879D01*
Y-92593D01*
Y-92306D01*
X1083859D01*
Y-92020D01*
Y-91734D01*
Y-91448D01*
Y-91161D01*
Y-90875D01*
Y-90588D01*
Y-90302D01*
Y-90016D01*
Y-89730D01*
Y-89443D01*
Y-89157D01*
Y-88871D01*
Y-88584D01*
Y-88298D01*
X1083573D01*
Y-88012D01*
Y-87725D01*
Y-87439D01*
Y-87153D01*
Y-86866D01*
Y-86580D01*
Y-86294D01*
Y-86007D01*
Y-85721D01*
Y-85435D01*
Y-85149D01*
Y-84862D01*
Y-84576D01*
Y-84290D01*
Y-84003D01*
Y-83717D01*
X1083286D01*
Y-83431D01*
X1097029D01*
Y-83717D01*
Y-84003D01*
Y-84290D01*
Y-84576D01*
Y-84862D01*
Y-85149D01*
Y-85435D01*
Y-85721D01*
Y-86007D01*
Y-86294D01*
Y-86580D01*
Y-86866D01*
Y-87153D01*
Y-87439D01*
X1097316D01*
Y-87725D01*
Y-88012D01*
Y-88298D01*
Y-88584D01*
Y-88871D01*
Y-89157D01*
Y-89443D01*
Y-89730D01*
Y-90016D01*
Y-90302D01*
Y-90588D01*
Y-90875D01*
Y-91161D01*
Y-91448D01*
Y-91734D01*
Y-92020D01*
Y-92306D01*
Y-92593D01*
Y-92879D01*
Y-93165D01*
Y-93452D01*
Y-93738D01*
Y-94024D01*
Y-94311D01*
Y-94597D01*
Y-94883D01*
Y-95170D01*
Y-95456D01*
Y-95742D01*
Y-96029D01*
Y-96315D01*
Y-96601D01*
Y-96887D01*
Y-97174D01*
Y-97460D01*
Y-97746D01*
Y-98033D01*
Y-98319D01*
Y-98605D01*
Y-98892D01*
Y-99178D01*
X1097602D01*
Y-99464D01*
X1097316D01*
Y-99751D01*
Y-100037D01*
X1097602D01*
Y-100323D01*
Y-100610D01*
Y-100896D01*
Y-101182D01*
Y-101468D01*
Y-101755D01*
Y-102041D01*
Y-102327D01*
Y-102614D01*
Y-102900D01*
Y-103186D01*
Y-103473D01*
Y-103759D01*
Y-104045D01*
Y-104332D01*
Y-104618D01*
Y-104904D01*
Y-105191D01*
Y-105477D01*
Y-105763D01*
Y-106049D01*
Y-106336D01*
Y-106622D01*
Y-106908D01*
Y-107195D01*
Y-107481D01*
X1097888D01*
Y-107767D01*
Y-108054D01*
Y-108340D01*
X1098175D01*
Y-108626D01*
X1098461D01*
Y-108913D01*
X1098747D01*
Y-109199D01*
X1099606D01*
Y-109485D01*
X1100465D01*
Y-109199D01*
X1100751D01*
Y-108913D01*
Y-108626D01*
Y-108340D01*
X1101038D01*
Y-108054D01*
Y-107767D01*
X1101324D01*
Y-107481D01*
Y-107195D01*
Y-106908D01*
X1101610D01*
Y-106622D01*
Y-106336D01*
Y-106049D01*
X1101897D01*
Y-105763D01*
Y-105477D01*
Y-105191D01*
X1102183D01*
Y-104904D01*
Y-104618D01*
Y-104332D01*
X1102469D01*
Y-104045D01*
Y-103759D01*
X1102756D01*
Y-103473D01*
Y-103186D01*
Y-102900D01*
X1103042D01*
Y-102614D01*
Y-102327D01*
Y-102041D01*
X1103328D01*
Y-101755D01*
Y-101468D01*
Y-101182D01*
X1103615D01*
Y-100896D01*
Y-100610D01*
X1103901D01*
Y-100323D01*
Y-100037D01*
Y-99751D01*
X1104187D01*
Y-99464D01*
Y-99178D01*
Y-98892D01*
X1104473D01*
Y-98605D01*
Y-98319D01*
Y-98033D01*
X1104760D01*
Y-97746D01*
Y-97460D01*
X1105046D01*
Y-97174D01*
Y-96887D01*
Y-96601D01*
X1105332D01*
Y-96315D01*
Y-96029D01*
Y-95742D01*
X1105619D01*
Y-95456D01*
Y-95170D01*
Y-94883D01*
X1105905D01*
Y-94597D01*
Y-94311D01*
X1106191D01*
Y-94024D01*
Y-93738D01*
Y-93452D01*
X1106478D01*
Y-93165D01*
Y-92879D01*
Y-92593D01*
X1106764D01*
Y-92306D01*
Y-92020D01*
Y-91734D01*
X1107050D01*
Y-91448D01*
Y-91161D01*
Y-90875D01*
Y-90588D01*
X1107337D01*
Y-90302D01*
Y-90016D01*
Y-89730D01*
Y-89443D01*
X1107623D01*
Y-89157D01*
Y-88871D01*
Y-88584D01*
Y-88298D01*
Y-88012D01*
X1107909D01*
Y-87725D01*
Y-87439D01*
Y-87153D01*
Y-86866D01*
Y-86580D01*
Y-86294D01*
X1108195D01*
Y-86007D01*
Y-85721D01*
Y-85435D01*
Y-85149D01*
Y-84862D01*
Y-84576D01*
Y-84290D01*
Y-84003D01*
Y-83717D01*
Y-83431D01*
X1121080D01*
Y-83717D01*
D02*
G37*
%LPC*%
G36*
X1027742Y-80568D02*
X1019725D01*
Y-80854D01*
Y-81140D01*
Y-81427D01*
Y-81713D01*
Y-81999D01*
X1019438D01*
Y-82285D01*
Y-82572D01*
Y-82858D01*
Y-83144D01*
Y-83431D01*
Y-83717D01*
X1019152D01*
Y-84003D01*
Y-84290D01*
Y-84576D01*
Y-84862D01*
Y-85149D01*
Y-85435D01*
X1018866D01*
Y-85721D01*
Y-86007D01*
Y-86294D01*
Y-86580D01*
Y-86866D01*
Y-87153D01*
X1018580D01*
Y-87439D01*
Y-87725D01*
Y-88012D01*
Y-88298D01*
Y-88584D01*
Y-88871D01*
Y-89157D01*
X1018293D01*
Y-89443D01*
Y-89730D01*
Y-90016D01*
Y-90302D01*
Y-90588D01*
Y-90875D01*
X1018007D01*
Y-91161D01*
Y-91448D01*
Y-91734D01*
X1025165D01*
Y-91448D01*
X1026310D01*
Y-91161D01*
X1026883D01*
Y-90875D01*
X1027169D01*
Y-90588D01*
X1027455D01*
Y-90302D01*
X1027742D01*
Y-90016D01*
X1028028D01*
Y-89730D01*
Y-89443D01*
X1028314D01*
Y-89157D01*
Y-88871D01*
X1028601D01*
Y-88584D01*
Y-88298D01*
X1028887D01*
Y-88012D01*
Y-87725D01*
Y-87439D01*
Y-87153D01*
X1029173D01*
Y-86866D01*
Y-86580D01*
Y-86294D01*
Y-86007D01*
Y-85721D01*
X1029459D01*
Y-85435D01*
Y-85149D01*
Y-84862D01*
Y-84576D01*
Y-84290D01*
Y-84003D01*
Y-83717D01*
Y-83431D01*
Y-83144D01*
Y-82858D01*
Y-82572D01*
X1029173D01*
Y-82285D01*
Y-81999D01*
X1028887D01*
Y-81713D01*
Y-81427D01*
X1028601D01*
Y-81140D01*
X1028314D01*
Y-80854D01*
X1027742D01*
Y-80568D01*
D02*
G37*
%LPD*%
D11*
X1342520Y-129921D02*
Y-122050D01*
X1346455D01*
X1347767Y-123362D01*
Y-125986D01*
X1346455Y-127297D01*
X1342520D01*
X1345144D02*
X1347767Y-129921D01*
X1354327D02*
X1351703D01*
X1350391Y-128609D01*
Y-125986D01*
X1351703Y-124674D01*
X1354327D01*
X1355639Y-125986D01*
Y-127297D01*
X1350391D01*
X1358263Y-124674D02*
X1360886Y-129921D01*
X1363510Y-124674D01*
X988189Y-161420D02*
Y-169291D01*
X992125D01*
X993437Y-167979D01*
Y-162732D01*
X992125Y-161420D01*
X988189D01*
X999996Y-169291D02*
X997372D01*
X996060Y-167979D01*
Y-165356D01*
X997372Y-164044D01*
X999996D01*
X1001308Y-165356D01*
Y-166667D01*
X996060D01*
X1003932Y-169291D02*
X1007868D01*
X1009180Y-167979D01*
X1007868Y-166667D01*
X1005244D01*
X1003932Y-165356D01*
X1005244Y-164044D01*
X1009180D01*
X1014427Y-171915D02*
X1015739D01*
X1017051Y-170603D01*
Y-164044D01*
X1013115D01*
X1011803Y-165356D01*
Y-167979D01*
X1013115Y-169291D01*
X1017051D01*
X1019675D02*
X1022299D01*
X1020987D01*
Y-164044D01*
X1019675D01*
X1026235Y-169291D02*
Y-164044D01*
X1030170D01*
X1031482Y-165356D01*
Y-169291D01*
X1038042D02*
X1035418D01*
X1034106Y-167979D01*
Y-165356D01*
X1035418Y-164044D01*
X1038042D01*
X1039354Y-165356D01*
Y-166667D01*
X1034106D01*
X1041977Y-164044D02*
Y-169291D01*
Y-166667D01*
X1043289Y-165356D01*
X1044601Y-164044D01*
X1045913D01*
X1185039Y-43310D02*
Y-51181D01*
X1188975D01*
X1190287Y-49869D01*
Y-44622D01*
X1188975Y-43310D01*
X1185039D01*
X1194223Y-51181D02*
X1196847D01*
X1198158Y-49869D01*
Y-47245D01*
X1196847Y-45933D01*
X1194223D01*
X1192911Y-47245D01*
Y-49869D01*
X1194223Y-51181D01*
X1206030Y-45933D02*
X1202094D01*
X1200782Y-47245D01*
Y-49869D01*
X1202094Y-51181D01*
X1206030D01*
X1208654Y-45933D02*
Y-49869D01*
X1209966Y-51181D01*
X1213902D01*
Y-45933D01*
X1216525Y-51181D02*
Y-45933D01*
X1217837D01*
X1219149Y-47245D01*
Y-51181D01*
Y-47245D01*
X1220461Y-45933D01*
X1221773Y-47245D01*
Y-51181D01*
X1228333D02*
X1225709D01*
X1224397Y-49869D01*
Y-47245D01*
X1225709Y-45933D01*
X1228333D01*
X1229644Y-47245D01*
Y-48557D01*
X1224397D01*
X1232268Y-51181D02*
Y-45933D01*
X1236204D01*
X1237516Y-47245D01*
Y-51181D01*
X1241452Y-44622D02*
Y-45933D01*
X1240140D01*
X1242764D01*
X1241452D01*
Y-49869D01*
X1242764Y-51181D01*
X1185039Y-82680D02*
Y-90551D01*
X1190287D01*
X1194223Y-85303D02*
X1196847D01*
X1198158Y-86615D01*
Y-90551D01*
X1194223D01*
X1192911Y-89239D01*
X1194223Y-87927D01*
X1198158D01*
X1200782Y-85303D02*
Y-89239D01*
X1202094Y-90551D01*
X1206030D01*
Y-91863D01*
X1204718Y-93175D01*
X1203406D01*
X1206030Y-90551D02*
Y-85303D01*
X1212590Y-90551D02*
X1209966D01*
X1208654Y-89239D01*
Y-86615D01*
X1209966Y-85303D01*
X1212590D01*
X1213902Y-86615D01*
Y-87927D01*
X1208654D01*
X1216525Y-85303D02*
Y-90551D01*
Y-87927D01*
X1217837Y-86615D01*
X1219149Y-85303D01*
X1220461D01*
X1232268Y-90551D02*
Y-82680D01*
X1237516Y-90551D01*
Y-82680D01*
X1241452Y-85303D02*
X1244075D01*
X1245387Y-86615D01*
Y-90551D01*
X1241452D01*
X1240140Y-89239D01*
X1241452Y-87927D01*
X1245387D01*
X1248011Y-90551D02*
Y-85303D01*
X1249323D01*
X1250635Y-86615D01*
Y-90551D01*
Y-86615D01*
X1251947Y-85303D01*
X1253259Y-86615D01*
Y-90551D01*
X1259818D02*
X1257195D01*
X1255883Y-89239D01*
Y-86615D01*
X1257195Y-85303D01*
X1259818D01*
X1261130Y-86615D01*
Y-87927D01*
X1255883D01*
X1185039Y-122050D02*
Y-129921D01*
X1188975D01*
X1190287Y-128609D01*
Y-123362D01*
X1188975Y-122050D01*
X1185039D01*
X1194223Y-124674D02*
X1196847D01*
X1198158Y-125986D01*
Y-129921D01*
X1194223D01*
X1192911Y-128609D01*
X1194223Y-127297D01*
X1198158D01*
X1202094Y-123362D02*
Y-124674D01*
X1200782D01*
X1203406D01*
X1202094D01*
Y-128609D01*
X1203406Y-129921D01*
X1211278D02*
X1208654D01*
X1207342Y-128609D01*
Y-125986D01*
X1208654Y-124674D01*
X1211278D01*
X1212589Y-125986D01*
Y-127297D01*
X1207342D01*
X1185039Y-161420D02*
Y-169291D01*
X1188975D01*
X1190287Y-167979D01*
Y-162732D01*
X1188975Y-161420D01*
X1185039D01*
X1194223Y-169291D02*
X1196847D01*
X1198158Y-167979D01*
Y-165356D01*
X1196847Y-164044D01*
X1194223D01*
X1192911Y-165356D01*
Y-167979D01*
X1194223Y-169291D01*
X1206030Y-164044D02*
X1202094D01*
X1200782Y-165356D01*
Y-167979D01*
X1202094Y-169291D01*
X1206030D01*
X1208654Y-164044D02*
Y-167979D01*
X1209966Y-169291D01*
X1213902D01*
Y-164044D01*
X1216525Y-169291D02*
Y-164044D01*
X1217837D01*
X1219149Y-165356D01*
Y-169291D01*
Y-165356D01*
X1220461Y-164044D01*
X1221773Y-165356D01*
Y-169291D01*
X1228333D02*
X1225709D01*
X1224397Y-167979D01*
Y-165356D01*
X1225709Y-164044D01*
X1228333D01*
X1229644Y-165356D01*
Y-166667D01*
X1224397D01*
X1232268Y-169291D02*
Y-164044D01*
X1236204D01*
X1237516Y-165356D01*
Y-169291D01*
X1241452Y-162732D02*
Y-164044D01*
X1240140D01*
X1242764D01*
X1241452D01*
Y-167979D01*
X1242764Y-169291D01*
D12*
X1338583Y-157480D02*
Y-118110D01*
X1181102Y-78740D02*
X1456693D01*
X1181102Y-118110D02*
X1456693D01*
X984252Y-157480D02*
X1456693D01*
X984252Y-39370D02*
X1456693D01*
X984252Y-196850D02*
Y-39370D01*
X1181102Y-196850D02*
Y-39370D01*
X-196850Y972441D02*
X1456693D01*
Y-196850D02*
Y972441D01*
X-196850Y-196850D02*
Y972441D01*
Y-196850D02*
X1456693D01*
X1190945Y-183073D02*
Y-188976D01*
X1193897D01*
X1194881Y-187993D01*
Y-187009D01*
X1193897Y-186025D01*
X1190945D01*
X1193897D01*
X1194881Y-185041D01*
Y-184057D01*
X1193897Y-183073D01*
X1190945D01*
X1199800Y-188976D02*
X1197832D01*
X1196848Y-187993D01*
Y-186025D01*
X1197832Y-185041D01*
X1199800D01*
X1200784Y-186025D01*
Y-187009D01*
X1196848D01*
X1202752Y-185041D02*
Y-188976D01*
Y-187009D01*
X1203736Y-186025D01*
X1204720Y-185041D01*
X1205704D01*
X1208656Y-188976D02*
Y-185041D01*
X1211607D01*
X1212591Y-186025D01*
Y-188976D01*
X1215543Y-185041D02*
X1217511D01*
X1218495Y-186025D01*
Y-188976D01*
X1215543D01*
X1214559Y-187993D01*
X1215543Y-187009D01*
X1218495D01*
X1220463Y-185041D02*
Y-188976D01*
Y-187009D01*
X1221447Y-186025D01*
X1222431Y-185041D01*
X1223415D01*
X1230302Y-183073D02*
Y-188976D01*
X1227350D01*
X1226367Y-187993D01*
Y-186025D01*
X1227350Y-185041D01*
X1230302D01*
X1233254Y-188976D02*
X1235222D01*
X1236206Y-187993D01*
Y-186025D01*
X1235222Y-185041D01*
X1233254D01*
X1232270Y-186025D01*
Y-187993D01*
X1233254Y-188976D01*
X1238174Y-189960D02*
X1242109D01*
X1244077Y-184057D02*
X1245061Y-183073D01*
X1247029D01*
X1248013Y-184057D01*
Y-187993D01*
X1247029Y-188976D01*
X1245061D01*
X1244077Y-187993D01*
Y-184057D01*
X1249981Y-188976D02*
X1251949D01*
X1250965D01*
Y-183073D01*
X1249981Y-184057D01*
X1254900Y-188976D02*
Y-187993D01*
X1255884D01*
Y-188976D01*
X1254900D01*
X1259820D02*
Y-183073D01*
X1262772D01*
X1263756Y-184057D01*
Y-186025D01*
X1262772Y-187009D01*
X1259820D01*
X1269660Y-185041D02*
X1266708D01*
X1265724Y-186025D01*
Y-187993D01*
X1266708Y-188976D01*
X1269660D01*
X1271627Y-183073D02*
Y-188976D01*
X1274579D01*
X1275563Y-187993D01*
Y-187009D01*
Y-186025D01*
X1274579Y-185041D01*
X1271627D01*
X1277531Y-183073D02*
Y-188976D01*
X1280483D01*
X1281467Y-187993D01*
Y-184057D01*
X1280483Y-183073D01*
X1277531D01*
X1284418Y-188976D02*
X1286386D01*
X1287370Y-187993D01*
Y-186025D01*
X1286386Y-185041D01*
X1284418D01*
X1283435Y-186025D01*
Y-187993D01*
X1284418Y-188976D01*
X1293274Y-185041D02*
X1290322D01*
X1289338Y-186025D01*
Y-187993D01*
X1290322Y-188976D01*
X1293274D01*
D13*
X0Y25000D02*
G03*
X25000Y0I25000J0D01*
G01*
X290000D02*
G03*
X340000Y50000I0J50000D01*
G01*
Y165000D02*
G03*
X290000Y215000I-50000J0D01*
G01*
X32500D02*
G03*
X22500Y205000I0J-10000D01*
G01*
Y162500D02*
G03*
X32500Y152500I10000J0D01*
G01*
X10000Y82500D02*
G03*
X0Y72500I0J-10000D01*
G01*
X75000Y82500D02*
G03*
X80000Y87500I0J5000D01*
G01*
X80000Y147500D02*
G03*
X75000Y152500I-5000J0D01*
G01*
X340000Y50000D02*
Y165000D01*
X25000Y0D02*
X290000D01*
X32500Y215000D02*
X290000D01*
X22500Y162500D02*
Y205000D01*
X0Y25000D02*
Y72500D01*
X10000Y82500D02*
X75000D01*
X80000Y87500D02*
Y147500D01*
X32500Y152500D02*
X75000D01*
D14*
X-9874Y18500D02*
X-7874Y12500D01*
X-5874Y18500D01*
X-7874Y0D02*
X-5874Y-6000D01*
X-9874D02*
X-7874Y0D01*
Y12500D02*
Y22500D01*
Y-10000D02*
Y0D01*
X-8874D02*
X24000D01*
X-8874Y12500D02*
X44295D01*
X0Y-7874D02*
X6000Y-5874D01*
X0Y-7874D02*
X6000Y-9874D01*
X51500D02*
X57500Y-7874D01*
X51500Y-5874D02*
X57500Y-7874D01*
X0D02*
X13054D01*
X41246D02*
X57500D01*
X0Y-8874D02*
Y24000D01*
X57500Y-8874D02*
Y-705D01*
D15*
X1005906Y-175202D02*
Y-190945D01*
X1011153Y-185697D01*
X1016401Y-190945D01*
Y-175202D01*
X1021649Y-190945D02*
X1026896D01*
X1024272D01*
Y-180450D01*
X1021649D01*
X1034768Y-190945D02*
Y-180450D01*
X1037391D01*
X1040015Y-183073D01*
Y-190945D01*
Y-183073D01*
X1042639Y-180450D01*
X1045263Y-183073D01*
Y-190945D01*
X1050511Y-175202D02*
Y-185697D01*
X1055758Y-190945D01*
X1061006Y-185697D01*
Y-175202D01*
X1076749Y-177826D02*
X1074125Y-175202D01*
X1068877D01*
X1066253Y-177826D01*
Y-188321D01*
X1068877Y-190945D01*
X1074125D01*
X1076749Y-188321D01*
Y-183073D01*
X1071501D01*
X1360236Y-138456D02*
X1362860Y-135832D01*
X1368108D01*
X1370732Y-138456D01*
Y-148951D01*
X1368108Y-151575D01*
X1362860D01*
X1360236Y-148951D01*
Y-138456D01*
X1375979Y-151575D02*
X1381227D01*
X1378603D01*
Y-135832D01*
X1375979Y-138456D01*
X1206034Y-151575D02*
X1196850D01*
X1206034Y-142391D01*
Y-140096D01*
X1203738Y-137800D01*
X1199146D01*
X1196850Y-140096D01*
X1210625Y-151575D02*
X1215217D01*
X1212921D01*
Y-137800D01*
X1210625Y-140096D01*
X1222105Y-151575D02*
X1231288Y-142391D01*
X1235880Y-140096D02*
X1238176Y-137800D01*
X1242767D01*
X1245063Y-140096D01*
Y-149279D01*
X1242767Y-151575D01*
X1238176D01*
X1235880Y-149279D01*
Y-140096D01*
X1249655Y-151575D02*
X1254247D01*
X1251951D01*
Y-137800D01*
X1249655Y-140096D01*
X1261134Y-151575D02*
X1270317Y-142391D01*
X1284093Y-151575D02*
X1274909D01*
X1284093Y-142391D01*
Y-140096D01*
X1281797Y-137800D01*
X1277205D01*
X1274909Y-140096D01*
X1288684D02*
X1290980Y-137800D01*
X1295572D01*
X1297868Y-140096D01*
Y-149279D01*
X1295572Y-151575D01*
X1290980D01*
X1288684Y-149279D01*
Y-140096D01*
X1302459Y-151575D02*
X1307051D01*
X1304755D01*
Y-137800D01*
X1302459Y-140096D01*
X1313939Y-149279D02*
X1316234Y-151575D01*
X1320826D01*
X1323122Y-149279D01*
Y-140096D01*
X1320826Y-137800D01*
X1316234D01*
X1313939Y-140096D01*
Y-142391D01*
X1316234Y-144687D01*
X1323122D01*
X1190945Y-57092D02*
Y-72835D01*
X1198816D01*
X1201440Y-70211D01*
Y-67587D01*
X1198816Y-64963D01*
X1190945D01*
X1198816D01*
X1201440Y-62339D01*
Y-59715D01*
X1198816Y-57092D01*
X1190945D01*
X1214559Y-72835D02*
X1209312D01*
X1206688Y-70211D01*
Y-64963D01*
X1209312Y-62339D01*
X1214559D01*
X1217183Y-64963D01*
Y-67587D01*
X1206688D01*
X1222431Y-62339D02*
Y-72835D01*
Y-67587D01*
X1225055Y-64963D01*
X1227678Y-62339D01*
X1230302D01*
X1238174Y-72835D02*
Y-62339D01*
X1246045D01*
X1248669Y-64963D01*
Y-72835D01*
X1256540Y-62339D02*
X1261788D01*
X1264412Y-64963D01*
Y-72835D01*
X1256540D01*
X1253917Y-70211D01*
X1256540Y-67587D01*
X1264412D01*
X1269660Y-62339D02*
Y-72835D01*
Y-67587D01*
X1272283Y-64963D01*
X1274907Y-62339D01*
X1277531D01*
X1295898Y-57092D02*
Y-72835D01*
X1288026D01*
X1285402Y-70211D01*
Y-64963D01*
X1288026Y-62339D01*
X1295898D01*
X1303769Y-72835D02*
X1309017D01*
X1311641Y-70211D01*
Y-64963D01*
X1309017Y-62339D01*
X1303769D01*
X1301145Y-64963D01*
Y-70211D01*
X1303769Y-72835D01*
X1202756Y-96461D02*
Y-110236D01*
X1209643D01*
X1211939Y-107940D01*
Y-98757D01*
X1209643Y-96461D01*
X1202756D01*
X1216531Y-101053D02*
Y-110236D01*
Y-105645D01*
X1218827Y-103349D01*
X1221123Y-101053D01*
X1223419D01*
X1230306Y-110236D02*
X1234898D01*
X1232602D01*
Y-101053D01*
X1230306D01*
X1241785Y-110236D02*
X1246377D01*
X1244081D01*
Y-96461D01*
X1241785D01*
X1253265Y-110236D02*
X1257856D01*
X1255560D01*
Y-96461D01*
X1253265D01*
X1278519D02*
Y-110236D01*
X1285406D01*
X1287702Y-107940D01*
Y-98757D01*
X1285406Y-96461D01*
X1278519D01*
X1292294Y-101053D02*
Y-110236D01*
Y-105645D01*
X1294590Y-103349D01*
X1296886Y-101053D01*
X1299181D01*
X1308365D02*
X1312957D01*
X1315252Y-103349D01*
Y-110236D01*
X1308365D01*
X1306069Y-107940D01*
X1308365Y-105645D01*
X1315252D01*
X1319844Y-101053D02*
Y-107940D01*
X1322140Y-110236D01*
X1324436Y-107940D01*
X1326732Y-110236D01*
X1329027Y-107940D01*
Y-101053D01*
X1333619Y-110236D02*
X1338211D01*
X1335915D01*
Y-101053D01*
X1333619D01*
X1345098Y-110236D02*
Y-101053D01*
X1351986D01*
X1354282Y-103349D01*
Y-110236D01*
X1363465Y-114828D02*
X1365761D01*
X1368057Y-112532D01*
Y-101053D01*
X1361169D01*
X1358873Y-103349D01*
Y-107940D01*
X1361169Y-110236D01*
X1368057D01*
D68*
X-22070Y-5847D02*
X-23069Y-4847D01*
Y-2848D01*
X-22070Y-1848D01*
X-21070D01*
X-20071Y-2848D01*
Y-3847D01*
Y-2848D01*
X-19071Y-1848D01*
X-18071D01*
X-17071Y-2848D01*
Y-4847D01*
X-18071Y-5847D01*
X-16072Y1151D02*
X-17071Y2151D01*
X-18071D01*
Y1151D01*
X-17071D01*
Y2151D01*
X-16072Y1151D01*
X-15072Y151D01*
X-17071Y6149D02*
Y8149D01*
Y7149D01*
X-23069D01*
X-22070Y6149D01*
Y11148D02*
X-23069Y12148D01*
Y14147D01*
X-22070Y15147D01*
X-21070D01*
X-20071Y14147D01*
X-19071Y15147D01*
X-18071D01*
X-17071Y14147D01*
Y12148D01*
X-18071Y11148D01*
X-19071D01*
X-20071Y12148D01*
X-21070Y11148D01*
X-22070D01*
X-20071Y12148D02*
Y14147D01*
X14654Y-12473D02*
X16653D01*
X15654D01*
Y-6475D01*
X14654Y-7474D01*
X22651Y-12473D02*
Y-6475D01*
X19652Y-9474D01*
X23651D01*
X26650Y-13472D02*
X27650Y-12473D01*
Y-11473D01*
X26650D01*
Y-12473D01*
X27650D01*
X26650Y-13472D01*
X25651Y-14472D01*
X35647Y-6475D02*
X33648Y-7474D01*
X31648Y-9474D01*
Y-11473D01*
X32648Y-12473D01*
X34648D01*
X35647Y-11473D01*
Y-10473D01*
X34648Y-9474D01*
X31648D01*
X37647Y-12473D02*
X39646D01*
X38646D01*
Y-6475D01*
X37647Y-7474D01*
D69*
X260637Y26149D02*
Y27749D01*
X262237D01*
Y26149D01*
X260637D01*
X250637D02*
Y27749D01*
X252237D01*
Y26149D01*
X250637D01*
X240637D02*
Y27749D01*
X242237D01*
Y26149D01*
X240637D01*
X230637D02*
Y27749D01*
X232237D01*
Y26149D01*
X230637D01*
X142960Y128531D02*
Y130131D01*
X144560D01*
Y128531D01*
X142960D01*
X132960D02*
Y130131D01*
X134560D01*
Y128531D01*
X132960D01*
X94476Y185428D02*
Y187028D01*
X96076D01*
Y185428D01*
X94476D01*
X104476D02*
Y187028D01*
X106076D01*
Y185428D01*
X104476D01*
X114476D02*
Y187028D01*
X116076D01*
Y185428D01*
X114476D01*
X124476D02*
Y187028D01*
X126076D01*
Y185428D01*
X124476D01*
X134476D02*
Y187028D01*
X136076D01*
Y185428D01*
X134476D01*
X144476D02*
Y187028D01*
X146076D01*
Y185428D01*
X144476D01*
X182566Y94869D02*
Y96469D01*
X184166D01*
Y94869D01*
X182566D01*
X172566D02*
Y96469D01*
X174166D01*
Y94869D01*
X172566D01*
X162566D02*
Y96469D01*
X164166D01*
Y94869D01*
X162566D01*
X152566D02*
Y96469D01*
X154166D01*
Y94869D01*
X152566D01*
X142566D02*
Y96469D01*
X144166D01*
Y94869D01*
X142566D01*
X132566D02*
Y96469D01*
X134166D01*
Y94869D01*
X132566D01*
X291444Y141759D02*
Y143359D01*
X293044D01*
Y141759D01*
X291444D01*
Y151759D02*
Y153359D01*
X293044D01*
Y151759D01*
X291444D01*
X279436Y30539D02*
Y32139D01*
X281036D01*
Y30539D01*
X279436D01*
X269436Y30538D02*
Y32138D01*
X271036D01*
Y30538D01*
X269436D01*
X279436Y40539D02*
Y42139D01*
X281036D01*
Y40539D01*
X279436D01*
X269436D02*
Y42139D01*
X271036D01*
Y40539D01*
X269436D01*
X279436Y50539D02*
Y52139D01*
X281036D01*
Y50539D01*
X279436D01*
X269436D02*
Y52139D01*
X271036D01*
Y50539D01*
X269436D01*
X296700Y186700D02*
Y188300D01*
X298300D01*
Y186700D01*
X296700D01*
X286700D02*
Y188300D01*
X288300D01*
Y186700D01*
X286700D01*
X196720Y29200D02*
Y30800D01*
X198320D01*
Y29200D01*
X196720D01*
X186720D02*
Y30800D01*
X188320D01*
Y29200D01*
X186720D01*
X176720D02*
Y30800D01*
X178320D01*
Y29200D01*
X176720D01*
X166720D02*
Y30800D01*
X168320D01*
Y29200D01*
X166720D01*
X206720D02*
Y30800D01*
X208320D01*
Y29200D01*
X206720D01*
X216720D02*
Y30800D01*
X218320D01*
Y29200D01*
X216720D01*
X98941Y57104D02*
X98141Y58704D01*
X99742D01*
X98941Y57104D01*
X61946Y43639D02*
X61146Y45239D01*
X62746D01*
X61946Y43639D01*
X39011Y33649D02*
X39411Y34049D01*
X39811D01*
X39411Y34449D01*
X39811Y34849D01*
X39411D01*
X39011Y35249D01*
X38611Y34849D01*
X38211D01*
X38611Y34449D01*
X38211Y34049D01*
X38611D01*
X39011Y33649D01*
X239436Y40539D02*
Y42139D01*
X241036D01*
Y40539D01*
X239436D01*
Y50539D02*
Y52139D01*
X241036D01*
Y50539D01*
X239436D01*
Y60539D02*
Y62139D01*
X241036D01*
Y60539D01*
X239436D01*
Y70539D02*
Y72139D01*
X241036D01*
Y70539D01*
X239436D01*
Y80539D02*
Y82139D01*
X241036D01*
Y80539D01*
X239436D01*
Y90539D02*
Y92139D01*
X241036D01*
Y90539D01*
X239436D01*
X254436Y60539D02*
Y62139D01*
X256036D01*
Y60539D01*
X254436D01*
Y70539D02*
Y72139D01*
X256036D01*
Y70539D01*
X254436D01*
Y80539D02*
Y82139D01*
X256036D01*
Y80539D01*
X254436D01*
X214909Y129121D02*
Y130721D01*
X216509D01*
Y129121D01*
X214909D01*
X204909D02*
Y130721D01*
X206509D01*
Y129121D01*
X204909D01*
X81582Y173511D02*
Y175111D01*
X83182D01*
Y173511D01*
X81582D01*
Y183511D02*
Y185111D01*
X83182D01*
Y183511D01*
X81582D01*
X46070Y185428D02*
X46470Y186228D01*
X46070Y187028D01*
X46870Y186628D01*
X47670Y187028D01*
X47270Y186228D01*
X47670Y185428D01*
X46870Y185828D01*
X46070Y185428D01*
X28070D02*
X28470Y186228D01*
X28070Y187028D01*
X28870Y186628D01*
X29670Y187028D01*
X29270Y186228D01*
X29670Y185428D01*
X28870Y185828D01*
X28070Y185428D01*
Y159428D02*
X28470Y160228D01*
X28070Y161028D01*
X28870Y160628D01*
X29670Y161028D01*
X29270Y160228D01*
X29670Y159428D01*
X28870Y159828D01*
X28070Y159428D01*
X46070D02*
X46470Y160228D01*
X46070Y161028D01*
X46870Y160628D01*
X47670Y161028D01*
X47270Y160228D01*
X47670Y159428D01*
X46870Y159828D01*
X46070Y159428D01*
X57100Y202100D02*
Y201700D01*
X57900D01*
Y202100D01*
X58300D01*
Y202900D01*
X57900D01*
Y203300D01*
X57100D01*
Y202900D01*
X56700D01*
Y202100D01*
X57100D01*
X317100Y189600D02*
Y189200D01*
X317900D01*
Y189600D01*
X318300D01*
Y190400D01*
X317900D01*
Y190800D01*
X317100D01*
Y190400D01*
X316700D01*
Y189600D01*
X317100D01*
Y24600D02*
Y24200D01*
X317900D01*
Y24600D01*
X318300D01*
Y25400D01*
X317900D01*
Y25800D01*
X317100D01*
Y25400D01*
X316700D01*
Y24600D01*
X317100D01*
X57100Y12100D02*
Y11700D01*
X57900D01*
Y12100D01*
X58300D01*
Y12900D01*
X57900D01*
Y13300D01*
X57100D01*
Y12900D01*
X56700D01*
Y12100D01*
X57100D01*
X286700Y16700D02*
Y18300D01*
X288300D01*
Y16700D01*
X286700D01*
Y6700D02*
Y8300D01*
X288300D01*
Y6700D01*
X286700D01*
X296700Y16700D02*
Y18300D01*
X298300D01*
Y16700D01*
X296700D01*
X296700Y6700D02*
Y8300D01*
X298300D01*
Y6700D01*
X296700D01*
X236700D02*
Y8300D01*
X238300D01*
Y6700D01*
X236700D01*
X236700Y16700D02*
Y18300D01*
X238300D01*
Y16700D01*
X236700D01*
X216700D02*
Y18300D01*
X218300D01*
Y16700D01*
X216700D01*
Y6700D02*
Y8300D01*
X218300D01*
Y6700D01*
X216700D01*
X226700Y16700D02*
Y18300D01*
X228300D01*
Y16700D01*
X226700D01*
X226700Y6700D02*
Y8300D01*
X228300D01*
Y6700D01*
X226700D01*
X196700Y16700D02*
Y18300D01*
X198300D01*
Y16700D01*
X196700D01*
Y6700D02*
Y8300D01*
X198300D01*
Y6700D01*
X196700D01*
X206700Y16700D02*
Y18300D01*
X208300D01*
Y16700D01*
X206700D01*
X206700Y6700D02*
Y8300D01*
X208300D01*
Y6700D01*
X206700D01*
X186700Y16700D02*
Y18300D01*
X188300D01*
Y16700D01*
X186700D01*
Y6700D02*
Y8300D01*
X188300D01*
Y6700D01*
X186700D01*
X166700Y16700D02*
Y18300D01*
X168300D01*
Y16700D01*
X166700D01*
Y6700D02*
Y8300D01*
X168300D01*
Y6700D01*
X166700D01*
X176700Y16700D02*
Y18300D01*
X178300D01*
Y16700D01*
X176700D01*
X176700Y6700D02*
Y8300D01*
X178300D01*
Y6700D01*
X176700D01*
X156700D02*
Y8300D01*
X158300D01*
Y6700D01*
X156700D01*
X156700Y16700D02*
Y18300D01*
X158300D01*
Y16700D01*
X156700D01*
X76700D02*
Y18300D01*
X78300D01*
Y16700D01*
X76700D01*
Y6700D02*
Y8300D01*
X78300D01*
Y6700D01*
X76700D01*
X86700Y16700D02*
Y18300D01*
X88300D01*
Y16700D01*
X86700D01*
Y6700D02*
Y8300D01*
X88300D01*
Y6700D01*
X86700D01*
X96700Y16700D02*
Y18300D01*
X98300D01*
Y16700D01*
X96700D01*
X96700Y6700D02*
Y8300D01*
X98300D01*
Y6700D01*
X96700D01*
X116700D02*
Y8300D01*
X118300D01*
Y6700D01*
X116700D01*
X116700Y16700D02*
Y18300D01*
X118300D01*
Y16700D01*
X116700D01*
X106700Y6700D02*
Y8300D01*
X108300D01*
Y6700D01*
X106700D01*
Y16700D02*
Y18300D01*
X108300D01*
Y16700D01*
X106700D01*
X136700Y6700D02*
Y8300D01*
X138300D01*
Y6700D01*
X136700D01*
X136700Y16700D02*
Y18300D01*
X138300D01*
Y16700D01*
X136700D01*
X126700Y6700D02*
Y8300D01*
X128300D01*
Y6700D01*
X126700D01*
Y16700D02*
Y18300D01*
X128300D01*
Y16700D01*
X126700D01*
X146700D02*
Y18300D01*
X148300D01*
Y16700D01*
X146700D01*
X146700Y6700D02*
Y8300D01*
X148300D01*
Y6700D01*
X146700D01*
X286700Y206700D02*
Y208300D01*
X288300D01*
Y206700D01*
X286700D01*
Y196700D02*
Y198300D01*
X288300D01*
Y196700D01*
X286700D01*
X296700Y206700D02*
Y208300D01*
X298300D01*
Y206700D01*
X296700D01*
X296700Y196700D02*
Y198300D01*
X298300D01*
Y196700D01*
X296700D01*
X276700D02*
Y198300D01*
X278300D01*
Y196700D01*
X276700D01*
X276700Y206700D02*
Y208300D01*
X278300D01*
Y206700D01*
X276700D01*
X236700Y196700D02*
Y198300D01*
X238300D01*
Y196700D01*
X236700D01*
X236700Y206700D02*
Y208300D01*
X238300D01*
Y206700D01*
X236700D01*
X216700D02*
Y208300D01*
X218300D01*
Y206700D01*
X216700D01*
Y196700D02*
Y198300D01*
X218300D01*
Y196700D01*
X216700D01*
X226700Y206700D02*
Y208300D01*
X228300D01*
Y206700D01*
X226700D01*
X226700Y196700D02*
Y198300D01*
X228300D01*
Y196700D01*
X226700D01*
X196700Y206700D02*
Y208300D01*
X198300D01*
Y206700D01*
X196700D01*
Y196700D02*
Y198300D01*
X198300D01*
Y196700D01*
X196700D01*
X206700Y206700D02*
Y208300D01*
X208300D01*
Y206700D01*
X206700D01*
X206700Y196700D02*
Y198300D01*
X208300D01*
Y196700D01*
X206700D01*
X246700Y206700D02*
Y208300D01*
X248300D01*
Y206700D01*
X246700D01*
X246700Y196700D02*
Y198300D01*
X248300D01*
Y196700D01*
X246700D01*
X266700D02*
Y198300D01*
X268300D01*
Y196700D01*
X266700D01*
X266700Y206700D02*
Y208300D01*
X268300D01*
Y206700D01*
X266700D01*
X256700Y196700D02*
Y198300D01*
X258300D01*
Y196700D01*
X256700D01*
Y206700D02*
Y208300D01*
X258300D01*
Y206700D01*
X256700D01*
X186700D02*
Y208300D01*
X188300D01*
Y206700D01*
X186700D01*
Y196700D02*
Y198300D01*
X188300D01*
Y196700D01*
X186700D01*
X166700Y206700D02*
Y208300D01*
X168300D01*
Y206700D01*
X166700D01*
Y196700D02*
Y198300D01*
X168300D01*
Y196700D01*
X166700D01*
X176700Y206700D02*
Y208300D01*
X178300D01*
Y206700D01*
X176700D01*
X176700Y196700D02*
Y198300D01*
X178300D01*
Y196700D01*
X176700D01*
X156700D02*
Y198300D01*
X158300D01*
Y196700D01*
X156700D01*
X156700Y206700D02*
Y208300D01*
X158300D01*
Y206700D01*
X156700D01*
X76700D02*
Y208300D01*
X78300D01*
Y206700D01*
X76700D01*
Y196700D02*
Y198300D01*
X78300D01*
Y196700D01*
X76700D01*
X86700Y206700D02*
Y208300D01*
X88300D01*
Y206700D01*
X86700D01*
Y196700D02*
Y198300D01*
X88300D01*
Y196700D01*
X86700D01*
X96700Y206700D02*
Y208300D01*
X98300D01*
Y206700D01*
X96700D01*
X96700Y196700D02*
Y198300D01*
X98300D01*
Y196700D01*
X96700D01*
X116700D02*
Y198300D01*
X118300D01*
Y196700D01*
X116700D01*
X116700Y206700D02*
Y208300D01*
X118300D01*
Y206700D01*
X116700D01*
X106700Y196700D02*
Y198300D01*
X108300D01*
Y196700D01*
X106700D01*
Y206700D02*
Y208300D01*
X108300D01*
Y206700D01*
X106700D01*
X136700Y196700D02*
Y198300D01*
X138300D01*
Y196700D01*
X136700D01*
X136700Y206700D02*
Y208300D01*
X138300D01*
Y206700D01*
X136700D01*
X126700Y196700D02*
Y198300D01*
X128300D01*
Y196700D01*
X126700D01*
Y206700D02*
Y208300D01*
X128300D01*
Y206700D01*
X126700D01*
X146700D02*
Y208300D01*
X148300D01*
Y206700D01*
X146700D01*
X146700Y196700D02*
Y198300D01*
X148300D01*
Y196700D01*
X146700D01*
X321444Y121759D02*
Y123359D01*
X323044D01*
Y121759D01*
X321444D01*
X331444D02*
Y123359D01*
X333044D01*
Y121759D01*
X331444D01*
X321444Y111759D02*
Y113359D01*
X323044D01*
Y111759D01*
X321444D01*
X331444Y111759D02*
Y113359D01*
X333044D01*
Y111759D01*
X331444D01*
X321444Y141759D02*
Y143359D01*
X323044D01*
Y141759D01*
X321444D01*
X331444D02*
Y143359D01*
X333044D01*
Y141759D01*
X331444D01*
X321444Y131759D02*
Y133359D01*
X323044D01*
Y131759D01*
X321444D01*
X331444Y131759D02*
Y133359D01*
X333044D01*
Y131759D01*
X331444D01*
Y151759D02*
Y153359D01*
X333044D01*
Y151759D01*
X331444D01*
X321444Y151759D02*
Y153359D01*
X323044D01*
Y151759D01*
X321444D01*
X331444Y161759D02*
Y163359D01*
X333044D01*
Y161759D01*
X331444D01*
X321444D02*
Y163359D01*
X323044D01*
Y161759D01*
X321444D01*
X331444Y171759D02*
Y173359D01*
X333044D01*
Y171759D01*
X331444D01*
X321444D02*
Y173359D01*
X323044D01*
Y171759D01*
X321444D01*
Y51759D02*
Y53359D01*
X323044D01*
Y51759D01*
X321444D01*
X331444D02*
Y53359D01*
X333044D01*
Y51759D01*
X331444D01*
X321444Y41759D02*
Y43359D01*
X323044D01*
Y41759D01*
X321444D01*
X331444Y41759D02*
Y43359D01*
X333044D01*
Y41759D01*
X331444D01*
X321444Y71759D02*
Y73359D01*
X323044D01*
Y71759D01*
X321444D01*
X331444D02*
Y73359D01*
X333044D01*
Y71759D01*
X331444D01*
X321444Y61759D02*
Y63359D01*
X323044D01*
Y61759D01*
X321444D01*
X331444Y61759D02*
Y63359D01*
X333044D01*
Y61759D01*
X331444D01*
Y81759D02*
Y83359D01*
X333044D01*
Y81759D01*
X331444D01*
X321444Y81759D02*
Y83359D01*
X323044D01*
Y81759D01*
X321444D01*
X331444Y91759D02*
Y93359D01*
X333044D01*
Y91759D01*
X331444D01*
X321444D02*
Y93359D01*
X323044D01*
Y91759D01*
X321444D01*
X331444Y101759D02*
Y103359D01*
X333044D01*
Y101759D01*
X331444D01*
X321444D02*
Y103359D01*
X323044D01*
Y101759D01*
X321444D01*
X111562Y70165D02*
Y71765D01*
X113162D01*
Y70165D01*
X111562D01*
X121562D02*
Y71765D01*
X123162D01*
Y70165D01*
X121562D01*
X131562D02*
Y71765D01*
X133162D01*
Y70165D01*
X131562D01*
X141562D02*
Y71765D01*
X143162D01*
Y70165D01*
X141562D01*
X111562Y29200D02*
Y30800D01*
X113162D01*
Y29200D01*
X111562D01*
X121562D02*
Y30800D01*
X123162D01*
Y29200D01*
X121562D01*
X131562D02*
Y30800D01*
X133162D01*
Y29200D01*
X131562D01*
X141562D02*
Y30800D01*
X143162D01*
Y29200D01*
X141562D01*
X276700Y6700D02*
Y8300D01*
X278300D01*
Y6700D01*
X276700D01*
X276700Y16700D02*
Y18300D01*
X278300D01*
Y16700D01*
X276700D01*
X246700D02*
Y18300D01*
X248300D01*
Y16700D01*
X246700D01*
X246700Y6700D02*
Y8300D01*
X248300D01*
Y6700D01*
X246700D01*
X266700D02*
Y8300D01*
X268300D01*
Y6700D01*
X266700D01*
X266700Y16700D02*
Y18300D01*
X268300D01*
Y16700D01*
X266700D01*
X256700Y6700D02*
Y8300D01*
X258300D01*
Y6700D01*
X256700D01*
Y16700D02*
Y18300D01*
X258300D01*
Y16700D01*
X256700D01*
X194082Y141877D02*
X194482D01*
X194882Y142277D01*
X195282Y141877D01*
X195682D01*
Y142277D01*
X195282Y142677D01*
X195682Y143077D01*
Y143477D01*
X195282D01*
X194882Y143077D01*
X194482Y143477D01*
X194082D01*
Y143077D01*
X194482Y142677D01*
X194082Y142277D01*
Y141877D01*
Y175735D02*
X194482D01*
X194882Y176135D01*
X195282Y175735D01*
X195682D01*
Y176135D01*
X195282Y176535D01*
X195682Y176935D01*
Y177335D01*
X195282D01*
X194882Y176935D01*
X194482Y177335D01*
X194082D01*
Y176935D01*
X194482Y176535D01*
X194082Y176135D01*
Y175735D01*
X199803Y166680D02*
X200203Y167080D01*
X200603D01*
X200203Y167480D01*
X200603Y167880D01*
X200203D01*
X199803Y168280D01*
X199403Y167880D01*
X199003D01*
X199403Y167480D01*
X199003Y167080D01*
X199403D01*
X199803Y166680D01*
Y150932D02*
X200203Y151332D01*
X200603D01*
X200203Y151732D01*
X200603Y152132D01*
X200203D01*
X199803Y152532D01*
X199403Y152132D01*
X199003D01*
X199403Y151732D01*
X199003Y151332D01*
X199403D01*
X199803Y150932D01*
Y158806D02*
X200203Y159206D01*
X200603D01*
X200203Y159606D01*
X200603Y160006D01*
X200203D01*
X199803Y160406D01*
X199403Y160006D01*
X199003D01*
X199403Y159606D01*
X199003Y159206D01*
X199403D01*
X199803Y158806D01*
X189961D02*
X190361Y159206D01*
X190761D01*
X190361Y159606D01*
X190761Y160006D01*
X190361D01*
X189961Y160406D01*
X189561Y160006D01*
X189161D01*
X189561Y159606D01*
X189161Y159206D01*
X189561D01*
X189961Y158806D01*
Y150932D02*
X190361Y151332D01*
X190761D01*
X190361Y151732D01*
X190761Y152132D01*
X190361D01*
X189961Y152532D01*
X189561Y152132D01*
X189161D01*
X189561Y151732D01*
X189161Y151332D01*
X189561D01*
X189961Y150932D01*
Y166680D02*
X190361Y167080D01*
X190761D01*
X190361Y167480D01*
X190761Y167880D01*
X190361D01*
X189961Y168280D01*
X189561Y167880D01*
X189161D01*
X189561Y167480D01*
X189161Y167080D01*
X189561D01*
X189961Y166680D01*
X39011Y27743D02*
X39411Y28143D01*
X39811D01*
X39411Y28543D01*
X39811Y28943D01*
X39411D01*
X39011Y29343D01*
X38611Y28943D01*
X38211D01*
X38611Y28543D01*
X38211Y28143D01*
X38611D01*
X39011Y27743D01*
X169637Y117493D02*
X170437Y118293D01*
X171237Y117493D01*
X170437Y116693D01*
X169637Y117493D01*
X154810Y89665D02*
X155610Y90465D01*
X156410Y89665D01*
X155610Y88865D01*
X154810Y89665D01*
X162586Y117717D02*
X163386Y118517D01*
X164186Y117717D01*
X163386Y116917D01*
X162586Y117717D01*
X157664Y136221D02*
X158464Y137021D01*
X159264Y136221D01*
X158464Y135421D01*
X157664Y136221D01*
X132566Y148383D02*
X133366Y149183D01*
X134166Y148383D01*
X133366Y147583D01*
X132566Y148383D01*
X160617Y184252D02*
X161417Y185052D01*
X162217Y184252D01*
X161417Y183452D01*
X160617Y184252D01*
X81582Y53323D02*
X82382Y54123D01*
X83182Y53323D01*
X82382Y52523D01*
X81582Y53323D01*
X79909Y74804D02*
X80709Y75603D01*
X81509Y74804D01*
X80709Y74003D01*
X79909Y74804D01*
X113767Y39429D02*
X114567Y40229D01*
X115367Y39429D01*
X114567Y38629D01*
X113767Y39429D01*
X74397Y52559D02*
X75197Y53359D01*
X75997Y52559D01*
X75197Y51759D01*
X74397Y52559D01*
X69672Y50394D02*
X70472Y51194D01*
X71272Y50394D01*
X70472Y49594D01*
X69672Y50394D01*
X96050Y39764D02*
X96850Y40564D01*
X97650Y39764D01*
X96850Y38964D01*
X96050Y39764D01*
X91720Y5118D02*
X92520Y5918D01*
X93320Y5118D01*
X92520Y4318D01*
X91720Y5118D01*
X141818Y14370D02*
X142618Y15170D01*
X143418Y14370D01*
X142618Y13570D01*
X141818Y14370D01*
X151267Y182677D02*
X152067Y183477D01*
X152867Y182677D01*
X152067Y181877D01*
X151267Y182677D01*
X164161Y186614D02*
X164961Y187414D01*
X165761Y186614D01*
X164961Y185814D01*
X164161Y186614D01*
X156700Y174213D02*
X157500Y175013D01*
X158300Y174213D01*
X157500Y173413D01*
X156700Y174213D01*
X154909Y185063D02*
X155709Y185863D01*
X156509Y185063D01*
X155709Y184263D01*
X154909Y185063D01*
X28728Y77952D02*
X29528Y78752D01*
X30328Y77952D01*
X29528Y77152D01*
X28728Y77952D01*
X282271Y22441D02*
X283071Y23241D01*
X283871Y22441D01*
X283071Y21641D01*
X282271Y22441D01*
X152349Y33897D02*
X153149Y34697D01*
X153949Y33897D01*
X153149Y33097D01*
X152349Y33897D01*
X210814Y38130D02*
X211614Y38930D01*
X212414Y38130D01*
X211614Y37330D01*
X210814Y38130D01*
X192507Y39429D02*
X193307Y40229D01*
X194107Y39429D01*
X193307Y38629D01*
X192507Y39429D01*
X56125Y40059D02*
X56925Y40859D01*
X57725Y40059D01*
X56925Y39259D01*
X56125Y40059D01*
X217311Y64566D02*
X218111Y65366D01*
X218911Y64566D01*
X218111Y63766D01*
X217311Y64566D01*
X205500Y37599D02*
X206299Y38399D01*
X207100Y37599D01*
X206299Y36799D01*
X205500Y37599D01*
X215539Y24705D02*
X216339Y25505D01*
X217139Y24705D01*
X216339Y23905D01*
X215539Y24705D01*
X196838Y61024D02*
X197638Y61824D01*
X198438Y61024D01*
X197638Y60224D01*
X196838Y61024D01*
X184830Y84646D02*
X185630Y85446D01*
X186430Y84646D01*
X185630Y83846D01*
X184830Y84646D01*
X66129Y158464D02*
X66929Y159264D01*
X67729Y158464D01*
X66929Y157664D01*
X66129Y158464D01*
X300381Y162402D02*
X301181Y163202D01*
X301981Y162402D01*
X301181Y161602D01*
X300381Y162402D01*
X306286D02*
X307086Y163202D01*
X307886Y162402D01*
X307086Y161602D01*
X306286Y162402D01*
X285617Y166240D02*
X286417Y167040D01*
X287217Y166240D01*
X286417Y165440D01*
X285617Y166240D01*
X240342Y166240D02*
X241142Y167040D01*
X241942Y166240D01*
X241142Y165440D01*
X240342Y166240D01*
X210814Y148721D02*
X211614Y149521D01*
X212414Y148721D01*
X211614Y147921D01*
X210814Y148721D01*
X243295Y151969D02*
X244094Y152769D01*
X244895Y151969D01*
X244094Y151169D01*
X243295Y151969D01*
X236011Y173622D02*
X236811Y174422D01*
X237611Y173622D01*
X236811Y172822D01*
X236011Y173622D01*
X209830Y173229D02*
X210630Y174029D01*
X211430Y173229D01*
X210630Y172429D01*
X209830Y173229D01*
X226956Y141339D02*
X227756Y142139D01*
X228556Y141339D01*
X227756Y140539D01*
X226956Y141339D01*
X279712Y148721D02*
X280512Y149521D01*
X281312Y148721D01*
X280512Y147921D01*
X279712Y148721D01*
X267901D02*
X268701Y149521D01*
X269501Y148721D01*
X268701Y147921D01*
X267901Y148721D01*
X258058D02*
X258858Y149521D01*
X259658Y148721D01*
X258858Y147921D01*
X258058Y148721D01*
X246247D02*
X247047Y149521D01*
X247847Y148721D01*
X247047Y147921D01*
X246247Y148721D01*
X279712Y166240D02*
X280512Y167040D01*
X281312Y166240D01*
X280512Y165440D01*
X279712Y166240D01*
X267901D02*
X268701Y167040D01*
X269501Y166240D01*
X268701Y165440D01*
X267901Y166240D01*
X258058D02*
X258858Y167040D01*
X259658Y166240D01*
X258858Y165440D01*
X258058Y166240D01*
X246247Y166240D02*
X247047Y167040D01*
X247847Y166240D01*
X247047Y165440D01*
X246247Y166240D01*
X235814Y148032D02*
X236614Y148832D01*
X237414Y148032D01*
X236614Y147232D01*
X235814Y148032D01*
X227153Y166929D02*
X227953Y167729D01*
X228753Y166929D01*
X227953Y166129D01*
X227153Y166929D01*
X294476Y178346D02*
X295276Y179146D01*
X296076Y178346D01*
X295276Y177546D01*
X294476Y178346D01*
X240342Y158465D02*
X241142Y159265D01*
X241942Y158465D01*
X241142Y157665D01*
X240342Y158465D01*
X261995D02*
X262795Y159265D01*
X263595Y158465D01*
X262795Y157665D01*
X261995Y158465D01*
X283649D02*
X284449Y159265D01*
X285249Y158465D01*
X284449Y157665D01*
X283649Y158465D01*
X239554Y116339D02*
X240354Y117139D01*
X241154Y116339D01*
X240354Y115539D01*
X239554Y116339D01*
X29259Y36909D02*
X30059Y37709D01*
X30859Y36909D01*
X30059Y36109D01*
X29259Y36909D01*
X7822Y76929D02*
X8622Y77729D01*
X9422Y76929D01*
X8622Y76129D01*
X7822Y76929D01*
X66523Y176378D02*
X67323Y177178D01*
X68123Y176378D01*
X67323Y175578D01*
X66523Y176378D01*
D70*
X99225Y107087D02*
G03*
X99225Y107087I-800J0D01*
G01*
X118910D02*
G03*
X118910Y107087I-800J0D01*
G01*
X109068D02*
G03*
X109068Y107087I-800J0D01*
G01*
X159264D02*
G03*
X159264Y107087I-800J0D01*
G01*
X178949D02*
G03*
X178949Y107087I-800J0D01*
G01*
X169107D02*
G03*
X169107Y107087I-800J0D01*
G01*
X139579D02*
G03*
X139579Y107087I-800J0D01*
G01*
X149422D02*
G03*
X149422Y107087I-800J0D01*
G01*
X199619D02*
G03*
X199619Y107087I-800J0D01*
G01*
X219304D02*
G03*
X219304Y107087I-800J0D01*
G01*
X209461D02*
G03*
X209461Y107087I-800J0D01*
G01*
X99225Y155315D02*
G03*
X99225Y155315I-800J0D01*
G01*
X118910D02*
G03*
X118910Y155315I-800J0D01*
G01*
X109068D02*
G03*
X109068Y155315I-800J0D01*
G01*
M02*
